<svg xmlns="http://www.w3.org/2000/svg" xmlns:xlink="http://www.w3.org/1999/xlink" width="791" height="125" viewBox="0 0 791 125"><defs><path id="o9qmd" d="M1290.32 634.3c0 .87-.3 1.65-.88 2.33a2.73 2.73 0 0 1-2.16 1.02 6.9 6.9 0 0 1-2.21-.74c-1.09-.5-1.93-.86-2.52-1.1a5.21 5.21 0 0 0-1.97-.36c-.73 0-1.33.18-1.8.54-.49.36-.73.88-.73 1.56 0 .73.74 1.43 2.23 2.09 1.48.65 3.05 1.33 4.71 2.02 1.66.69 3.08 1.62 4.25 2.78a6.3 6.3 0 0 1 1.76 4.68c0 1.69-.44 3.2-1.32 4.54a8.98 8.98 0 0 1-3.75 3.18 12.74 12.74 0 0 1-5.55 1.16c-1.47 0-3.02-.26-4.64-.77-1.63-.51-3-1.22-4.11-2.12-1.12-.9-1.67-1.89-1.67-2.95 0-.68.3-1.4.9-2.18a2.8 2.8 0 0 1 2.3-1.17c.68 0 1.27.1 1.78.32.5.22 1.14.54 1.9.99.78.44 1.44.77 2 .97.57.2 1.26.3 2.07.3 1.1 0 1.86-.17 2.29-.52.43-.35.64-.89.64-1.62 0-.74-.71-1.42-2.15-2.05-1.43-.63-3-1.3-4.73-2.02a13.04 13.04 0 0 1-4.32-2.84 6.37 6.37 0 0 1-1.75-4.69 8.25 8.25 0 0 1 4.88-7.69 11.88 11.88 0 0 1 5.24-1.11c1.37 0 2.76.2 4.2.61a9.61 9.61 0 0 1 3.63 1.87 3.78 3.78 0 0 1 1.48 2.97zm-35.29 1.46c-1.24 0-2.32.37-3.22 1.11a6.63 6.63 0 0 0-2.01 2.9 10.61 10.61 0 0 0 .01 7.37 6.66 6.66 0 0 0 2 2.84 4.92 4.92 0 0 0 3.22 1.08c1.28 0 2.37-.36 3.25-1.08a6.66 6.66 0 0 0 2-2.84 10.5 10.5 0 0 0 .01-7.35 6.78 6.78 0 0 0-2-2.9 4.9 4.9 0 0 0-3.26-1.13zm0-6.91c1.93 0 3.72.4 5.38 1.19 1.66.8 3.08 1.87 4.27 3.24a15.02 15.02 0 0 1 2.76 4.66c.65 1.74.97 3.58.97 5.52 0 1.97-.32 3.83-.97 5.6a14.64 14.64 0 0 1-2.7 4.63 12.82 12.82 0 0 1-9.7 4.31c-2.59 0-4.9-.65-6.94-1.96a13.21 13.21 0 0 1-4.74-5.3 15.96 15.96 0 0 1-1.68-7.28 15.71 15.71 0 0 1 3.74-10.18 12.94 12.94 0 0 1 4.28-3.25 12.28 12.28 0 0 1 5.33-1.18zm-23.96 14.36c0-2.03-.52-3.78-1.54-5.25a4.98 4.98 0 0 0-4.34-2.2c-1.21 0-2.26.38-3.15 1.14a6.93 6.93 0 0 0-1.99 2.9 10.4 10.4 0 0 0-.28 6.35c.26.92.63 1.75 1.12 2.5a5.6 5.6 0 0 0 1.83 1.76c.74.44 1.56.65 2.47.65a4.8 4.8 0 0 0 3.24-1.15 6.83 6.83 0 0 0 1.99-2.98c.43-1.22.65-2.46.65-3.72zm7.46-22.01v32.27c0 .82-.16 1.55-.48 2.19a3.56 3.56 0 0 1-3.27 2c-2 0-3.25-1.04-3.72-3.14a6.86 6.86 0 0 1-2.92 2.57c-1.26.6-2.57.91-3.93.91-2.38 0-4.51-.67-6.4-2.02a13.3 13.3 0 0 1-4.35-5.33 16.13 16.13 0 0 1-1.53-6.85c0-2.56.46-4.99 1.37-7.27a12.9 12.9 0 0 1 4.11-5.56 10.37 10.37 0 0 1 6.54-2.12 11.13 11.13 0 0 1 4.94 1.15c.76.38 1.48.86 2.17 1.46V621.2c0-1.25.34-2.26 1.03-3.04a3.42 3.42 0 0 1 2.7-1.16c.72 0 1.36.17 1.93.52.56.35 1 .85 1.33 1.49.32.64.48 1.37.48 2.19zm-48.88 22.26c0 1.28.22 2.5.67 3.68a6.66 6.66 0 0 0 2 2.84 4.92 4.92 0 0 0 3.22 1.08c1.82 0 3.24-.76 4.25-2.29a9.4 9.4 0 0 0 1.52-5.3c0-1.27-.21-2.5-.64-3.68a6.73 6.73 0 0 0-1.98-2.9 4.71 4.71 0 0 0-3.15-1.13c-1.24 0-2.32.37-3.22 1.11a6.63 6.63 0 0 0-2.01 2.9c-.44 1.2-.66 2.43-.66 3.7zm19.12-9.36v18.65a8.8 8.8 0 0 1-.6 3.56c-.41.9-1.4 1.36-2.99 1.36-1.01 0-1.8-.27-2.34-.8a5.02 5.02 0 0 1-1.23-2.4c-1.97 2.35-4.34 3.53-7.1 3.53-2.3 0-4.39-.62-6.28-1.87a12.66 12.66 0 0 1-4.44-5.18 16.95 16.95 0 0 1-1.6-7.49c0-2.68.55-5.14 1.64-7.38a13.34 13.34 0 0 1 4.48-5.3 10.77 10.77 0 0 1 6.2-1.93c1.4 0 2.73.29 4 .87a7.67 7.67 0 0 1 3.1 2.58 3.55 3.55 0 0 1 3.57-3.15c1.59 0 2.58.46 2.98 1.38.4.9.61 2.1.61 3.57zm-28.07-.49c0 .85-.27 1.67-.81 2.46-.54.78-1.23 1.17-2.05 1.17a8.7 8.7 0 0 1-2.7-.74 9.04 9.04 0 0 0-3.2-.74 5.5 5.5 0 0 0-3.42 1.09 6.58 6.58 0 0 0-2.14 2.85c-.47 1.18-.7 2.43-.7 3.76 0 2.02.56 3.79 1.69 5.31a5.53 5.53 0 0 0 6.27 2c.6-.2 1.34-.46 2.21-.78a6.98 6.98 0 0 1 1.63-.49 3 3 0 0 1 1.6.45 3.4 3.4 0 0 1 1.62 2.85c0 1.18-.54 2.16-1.61 2.95a10.63 10.63 0 0 1-3.78 1.71c-1.45.36-2.7.54-3.74.54-2.58 0-4.9-.65-6.93-1.96a13.21 13.21 0 0 1-4.75-5.3 15.96 15.96 0 0 1-1.68-7.28 15.72 15.72 0 0 1 3.74-10.18 12.94 12.94 0 0 1 4.28-3.25 12.28 12.28 0 0 1 5.34-1.18c1.14 0 2.44.16 3.88.47 1.44.32 2.67.83 3.7 1.54a3.21 3.21 0 0 1 1.55 2.75zm-44.77 9.85c0 1.28.22 2.5.67 3.68a6.66 6.66 0 0 0 2 2.84 4.92 4.92 0 0 0 3.22 1.08c1.82 0 3.24-.76 4.25-2.29a9.4 9.4 0 0 0 1.52-5.3c0-1.27-.22-2.5-.65-3.68a6.73 6.73 0 0 0-1.97-2.9 4.71 4.71 0 0 0-3.15-1.13c-1.25 0-2.32.37-3.22 1.11a6.63 6.63 0 0 0-2.01 2.9c-.44 1.2-.66 2.43-.66 3.7zm19.12-9.36v18.65a8.8 8.8 0 0 1-.6 3.56c-.41.9-1.4 1.36-3 1.36-1 0-1.78-.27-2.33-.8a5.02 5.02 0 0 1-1.23-2.4c-1.97 2.35-4.34 3.53-7.1 3.53-2.3 0-4.39-.62-6.28-1.87a12.66 12.66 0 0 1-4.44-5.18 16.95 16.95 0 0 1-1.6-7.49c0-2.68.54-5.14 1.64-7.38a13.34 13.34 0 0 1 4.48-5.3 10.77 10.77 0 0 1 6.2-1.93c1.4 0 2.73.29 3.99.87a7.67 7.67 0 0 1 3.11 2.58 3.55 3.55 0 0 1 3.57-3.15c1.58 0 2.58.46 2.98 1.38.4.9.6 2.1.6 3.57zm-39 19.37v-17.38h-1.67c-.98 0-1.77-.3-2.37-.9-.6-.61-.9-1.42-.9-2.42a3.22 3.22 0 0 1 3.27-3.3h1.67v-4.51c0-1.25.34-2.26 1.02-3.03a3.42 3.42 0 0 1 2.7-1.17 3.59 3.59 0 0 1 3.26 2c.33.65.49 1.38.49 2.2v4.5h2.12c1.03 0 1.88.27 2.56.81.67.54 1 1.37 1 2.5 0 1.12-.32 1.96-.99 2.5-.67.55-1.52.82-2.57.82h-2.12v17.38c0 .82-.16 1.55-.49 2.19a3.56 3.56 0 0 1-3.26 2 3.42 3.42 0 0 1-2.7-1.16 4.42 4.42 0 0 1-1.02-3.03zm-5.13-19.17c0 .87-.29 1.65-.87 2.33a2.73 2.73 0 0 1-2.16 1.02c-.4 0-1.13-.24-2.22-.74-1.09-.5-1.93-.86-2.52-1.1a5.22 5.22 0 0 0-1.97-.36c-.73 0-1.33.18-1.81.54-.48.36-.72.88-.72 1.56 0 .73.74 1.43 2.23 2.09 1.48.65 3.05 1.33 4.72 2.02 1.66.69 3.07 1.62 4.25 2.78a6.3 6.3 0 0 1 1.76 4.68 8.1 8.1 0 0 1-1.32 4.54 8.98 8.98 0 0 1-3.76 3.18 12.75 12.75 0 0 1-5.55 1.16c-1.47 0-3.02-.26-4.65-.77a12.3 12.3 0 0 1-4.1-2.12c-1.12-.9-1.68-1.89-1.68-2.95 0-.68.3-1.4.9-2.18a2.8 2.8 0 0 1 2.32-1.17c.67 0 1.26.1 1.77.32.5.22 1.14.54 1.9.99.77.44 1.44.77 2 .97.57.2 1.26.3 2.07.3 1.1 0 1.86-.17 2.29-.52.43-.35.64-.89.64-1.62 0-.74-.71-1.42-2.15-2.05-1.43-.63-3-1.3-4.73-2.02a13.05 13.05 0 0 1-4.33-2.84 6.37 6.37 0 0 1-1.74-4.69 8.25 8.25 0 0 1 4.88-7.69 11.89 11.89 0 0 1 5.24-1.11c1.37 0 2.77.2 4.2.61a9.62 9.62 0 0 1 3.63 1.87 3.78 3.78 0 0 1 1.48 2.97zm-40.73 6.6h11.86a6.86 6.86 0 0 0-1.87-4.17 5.48 5.48 0 0 0-4.07-1.58 5.4 5.4 0 0 0-4 1.6 6.97 6.97 0 0 0-1.92 4.14zm16.05 5.05h-15.88a5.71 5.71 0 0 0 2.33 4.06 7.91 7.91 0 0 0 4.7 1.39c1.13 0 2.1-.18 2.89-.54.79-.36 1.78-.87 2.97-1.52 1.19-.66 2.05-.99 2.59-.99.5 0 1 .16 1.48.47.48.32.86.73 1.15 1.22.28.5.43 1.02.43 1.56 0 .79-.36 1.56-1.08 2.33-.71.77-1.67 1.46-2.85 2.06-1.2.6-2.53 1.1-4.02 1.46-1.5.37-2.9.55-4.24.55-2.71 0-5.14-.63-7.28-1.88a12.83 12.83 0 0 1-4.96-5.2 15.77 15.77 0 0 1-1.74-7.46c0-1.87.33-3.7 1-5.47a15.6 15.6 0 0 1 2.78-4.74 12.62 12.62 0 0 1 15.02-3.18c1.67.8 3.1 1.88 4.26 3.2a15.54 15.54 0 0 1 2.73 4.45c.66 1.63.98 3.24.98 4.85 0 2.25-1.08 3.38-3.26 3.38zm-33.6-2.74c0-2.03-.51-3.78-1.53-5.25a4.97 4.97 0 0 0-4.34-2.2c-1.22 0-2.26.38-3.15 1.14a6.93 6.93 0 0 0-1.99 2.9 10.4 10.4 0 0 0-.27 6.35c.25.92.62 1.75 1.1 2.5a5.6 5.6 0 0 0 1.84 1.76c.74.44 1.56.65 2.47.65a4.8 4.8 0 0 0 3.24-1.15 6.83 6.83 0 0 0 1.98-2.98c.43-1.22.65-2.46.65-3.72zm7.46-22.01v32.27c0 .82-.16 1.55-.48 2.19a3.56 3.56 0 0 1-3.26 2c-2.01 0-3.25-1.04-3.72-3.14a6.86 6.86 0 0 1-2.92 2.57c-1.26.6-2.57.91-3.94.91-2.38 0-4.5-.67-6.38-2.02a13.29 13.29 0 0 1-4.35-5.33 16.13 16.13 0 0 1-1.53-6.85c0-2.56.45-4.99 1.36-7.27a12.9 12.9 0 0 1 4.11-5.56c1.83-1.41 4.01-2.12 6.54-2.12a11.13 11.13 0 0 1 4.93 1.15c.76.38 1.49.86 2.18 1.46V621.2c0-1.25.34-2.26 1.02-3.04a3.41 3.41 0 0 1 2.7-1.16c.72 0 1.37.17 1.93.52.56.35 1 .85 1.33 1.49.32.64.48 1.37.48 2.19zm-42.69 13.1c0 .87-.29 1.65-.87 2.33a2.73 2.73 0 0 1-2.16 1.02c-.4 0-1.13-.24-2.22-.74-1.09-.5-1.93-.86-2.52-1.1a5.22 5.22 0 0 0-1.97-.36c-.72 0-1.33.18-1.8.54-.49.36-.73.88-.73 1.56 0 .73.74 1.43 2.23 2.09 1.48.65 3.05 1.33 4.72 2.02 1.66.69 3.08 1.62 4.25 2.78a6.3 6.3 0 0 1 1.76 4.68 8.1 8.1 0 0 1-1.32 4.54 8.98 8.98 0 0 1-3.76 3.18 12.75 12.75 0 0 1-5.55 1.16c-1.47 0-3.02-.26-4.65-.77a12.3 12.3 0 0 1-4.1-2.12c-1.12-.9-1.68-1.89-1.68-2.95 0-.68.3-1.4.9-2.18a2.8 2.8 0 0 1 2.32-1.17c.67 0 1.26.1 1.77.32.5.22 1.14.54 1.9.99.78.44 1.44.77 2 .97.57.2 1.26.3 2.07.3 1.1 0 1.86-.17 2.29-.52.43-.35.65-.89.65-1.62 0-.74-.72-1.42-2.16-2.05-1.43-.63-3-1.3-4.73-2.02a13.05 13.05 0 0 1-4.33-2.84 6.37 6.37 0 0 1-1.74-4.69 8.25 8.25 0 0 1 4.88-7.69 11.89 11.89 0 0 1 5.24-1.11c1.37 0 2.77.2 4.2.61a9.62 9.62 0 0 1 3.63 1.87 3.78 3.78 0 0 1 1.48 2.97zm-35.3 1.46c-1.24 0-2.31.37-3.22 1.11a6.63 6.63 0 0 0-2 2.9 10.61 10.61 0 0 0 0 7.37 6.66 6.66 0 0 0 2 2.84 4.92 4.92 0 0 0 3.23 1.08c1.28 0 2.36-.36 3.25-1.08a6.66 6.66 0 0 0 2-2.84 10.5 10.5 0 0 0 .01-7.35 6.78 6.78 0 0 0-2-2.9 4.9 4.9 0 0 0-3.26-1.13zm.01-6.91c1.93 0 3.72.4 5.38 1.19 1.66.8 3.09 1.87 4.28 3.24a15.02 15.02 0 0 1 2.76 4.66c.64 1.74.97 3.58.97 5.52 0 1.97-.33 3.83-.97 5.6a14.64 14.64 0 0 1-2.71 4.63 12.83 12.83 0 0 1-9.7 4.31c-2.59 0-4.9-.65-6.94-1.96a13.22 13.22 0 0 1-4.74-5.3 15.95 15.95 0 0 1-1.69-7.28 15.71 15.71 0 0 1 3.75-10.18 12.95 12.95 0 0 1 4.28-3.25 12.29 12.29 0 0 1 5.33-1.18zm-29.62 24.62v-20.53c0-1.19.38-2.12 1.15-2.79.77-.66 1.66-1 2.67-1 2.43 0 3.64 1.06 3.64 3.15h.1a8.29 8.29 0 0 1 2.33-2.4c.8-.5 1.76-.74 2.91-.74.96 0 1.8.35 2.53 1.05.72.7 1.09 1.7 1.09 2.99 0 .75-.2 1.32-.57 1.72-.38.39-.9.72-1.56 1l-2.33.94c-1.48.68-2.6 1.36-3.36 2.03-.76.68-1.14 1.68-1.14 3.01v11.57c0 .82-.16 1.55-.48 2.19a3.56 3.56 0 0 1-3.26 2 3.41 3.41 0 0 1-2.7-1.16 4.42 4.42 0 0 1-1.02-3.03zm-13.4 0v-17.38h-1.67c-.98 0-1.77-.3-2.37-.9-.6-.61-.9-1.42-.9-2.42a3.22 3.22 0 0 1 3.27-3.3h1.67v-4.51c0-1.25.34-2.26 1.02-3.03a3.42 3.42 0 0 1 2.7-1.17 3.59 3.59 0 0 1 3.26 2c.32.65.48 1.38.48 2.2v4.5h2.13c1.03 0 1.88.27 2.56.81.67.54 1 1.37 1 2.5 0 1.12-.32 1.96-1 2.5-.66.55-1.51.82-2.56.82h-2.13v17.38c0 .82-.16 1.55-.48 2.19a3.56 3.56 0 0 1-3.26 2 3.42 3.42 0 0 1-2.7-1.16 4.42 4.42 0 0 1-1.02-3.03zm-5.14-19.17c0 .87-.29 1.65-.87 2.33a2.73 2.73 0 0 1-2.16 1.02 6.9 6.9 0 0 1-2.22-.74 69.8 69.8 0 0 0-2.51-1.1 5.21 5.21 0 0 0-1.98-.36c-.72 0-1.32.18-1.8.54-.49.36-.73.88-.73 1.56 0 .73.75 1.43 2.23 2.09 1.48.65 3.06 1.33 4.72 2.02 1.66.69 3.07 1.62 4.25 2.78a6.3 6.3 0 0 1 1.75 4.68c0 1.69-.43 3.2-1.31 4.54a8.98 8.98 0 0 1-3.76 3.18 12.74 12.74 0 0 1-5.55 1.16c-1.47 0-3.01-.26-4.64-.77s-3-1.22-4.11-2.12c-1.11-.9-1.67-1.89-1.67-2.95 0-.68.3-1.4.9-2.18a2.8 2.8 0 0 1 2.31-1.17c.68 0 1.27.1 1.77.32s1.15.54 1.91.99c.77.44 1.44.77 2 .97.57.2 1.25.3 2.06.3 1.1 0 1.86-.17 2.3-.52.42-.35.64-.89.64-1.62 0-.74-.72-1.42-2.15-2.05-1.44-.63-3.01-1.3-4.73-2.02a13.04 13.04 0 0 1-4.33-2.84 6.37 6.37 0 0 1-1.74-4.69 8.25 8.25 0 0 1 4.88-7.69 11.88 11.88 0 0 1 5.23-1.11c1.37 0 2.77.2 4.2.61a9.61 9.61 0 0 1 3.63 1.87 3.78 3.78 0 0 1 1.48 2.97zm-40.72 6.6h11.86a6.86 6.86 0 0 0-1.87-4.17 5.48 5.48 0 0 0-4.07-1.58 5.4 5.4 0 0 0-4 1.6 6.97 6.97 0 0 0-1.92 4.14zm16.05 5.05h-15.88a5.71 5.71 0 0 0 2.33 4.06 7.91 7.91 0 0 0 4.7 1.39c1.13 0 2.1-.18 2.88-.54.8-.36 1.79-.87 2.98-1.52 1.18-.66 2.05-.99 2.59-.99.5 0 1 .16 1.48.47.48.32.86.73 1.15 1.22.28.5.43 1.02.43 1.56 0 .79-.36 1.56-1.08 2.33-.71.77-1.67 1.46-2.86 2.06-1.18.6-2.52 1.1-4.02 1.46-1.49.37-2.9.55-4.23.55-2.71 0-5.14-.63-7.28-1.88a12.83 12.83 0 0 1-4.96-5.2 15.77 15.77 0 0 1-1.74-7.46c0-1.87.33-3.7 1-5.47a15.6 15.6 0 0 1 2.78-4.74 12.62 12.62 0 0 1 15.02-3.18c1.67.8 3.1 1.88 4.26 3.2a15.54 15.54 0 0 1 2.73 4.45c.65 1.63.98 3.24.98 4.85 0 2.25-1.08 3.38-3.26 3.38zm-50.7 1.02v-13.62c0-1.24.34-2.25 1.02-3.03a3.41 3.41 0 0 1 2.7-1.16c.72 0 1.37.17 1.93.52.57.35 1 .85 1.33 1.49.32.64.48 1.36.48 2.18v13.47c0 1.48.48 2.67 1.43 3.55a4.79 4.79 0 0 0 3.37 1.33c.88 0 1.68-.19 2.4-.57a4.5 4.5 0 0 0 1.77-1.68c.44-.73.67-1.61.67-2.63v-13.47c0-1.24.34-2.25 1.02-3.03a3.41 3.41 0 0 1 2.7-1.16c.72 0 1.36.17 1.93.52.56.35 1 .85 1.33 1.49.32.64.48 1.36.48 2.18v13.62c0 2.23-.48 4.18-1.43 5.85a9.42 9.42 0 0 1-4.23 3.84c-1.86.9-4.07 1.34-6.64 1.34-3.89 0-6.9-.99-9.05-2.97-2.14-1.98-3.21-4.67-3.21-8.06zM823 653.6v-29.8c0-1.27.36-2.27 1.09-2.99a3.8 3.8 0 0 1 4.58-.56c.65.34 1.14.74 1.46 1.2l16.44 22.17h.1V623.8c0-1.28.37-2.28 1.1-3a3.8 3.8 0 0 1 2.77-1.07c1.17 0 2.1.35 2.82 1.06.72.7 1.08 1.71 1.08 3v29.8c0 1.3-.36 2.3-1.08 3a3.84 3.84 0 0 1-2.82 1.07c-.47 0-1.03-.17-1.68-.5a5.06 5.06 0 0 1-1.58-1.22l-16.41-21.9h-.1v19.55c0 1.3-.36 2.3-1.08 3a3.84 3.84 0 0 1-2.82 1.07 3.8 3.8 0 0 1-2.78-1.08 4.02 4.02 0 0 1-1.09-3z"/><path id="o9qme" d="M712.5 583.3c1.17.25 2.32.75 3.35 1.51l2.36-2.4c.21-.21.66-.13.72.19.25 1.41.2 2.77-.14 4.13 1.16-.34 2.33-.5 3.56-.5.3 0 .55.37.37.65a19.7 19.7 0 0 1-1.93 2.48c-.26.29-.57.74-.97.9 1.74 4.34 1.7 9.7.57 13.84a13.2 13.2 0 0 1-4.88 7.38 11.96 11.96 0 0 1-6.54 2c.74 1.38.48 3.56-.98 4.26-.27.13-.67-.15-.46-.45.43-.58.87-1.1 1.02-1.82.15-.69.04-1.34-.21-1.97a21.27 21.27 0 0 1-3.67-.29 5.53 5.53 0 0 1-.25 3.5c-.17.4-.73.1-.65-.27a9.6 9.6 0 0 0 .22-3.33c-5.54-.95-11.37-3.59-12.78-9.48v-.1c-2.44-1.54-5.59-5.14-2.66-7.18a1.98 1.98 0 0 1 1.61-.3c.7-2.56 4.1-3.32 5.26-.41 1.06 2.64.09 6.95-2.36 8.56 1.74 1.43 4.06 2.14 6.17.92 2.19-1.26 2.21-3.72 2.18-5.95-.07-3.65-.54-7.56 1.06-10.97.27-.58.6-1.12.97-1.6 3-4.7 9.03-3.3 9.06-3.3m5.68.3l-1.78 1.66c.54.47 1.02.99 1.46 1.55.3-1.06.4-2.12.32-3.2m-24.09 11.45c-1.37-1.33-2.71-.07-3.16 1.3.43.25.8.63 1.07 1.06 1.04 1.67 1.1 4.22.84 6.18 1.5-1.23 1.93-3.15 2.04-5.03.07-1.13.1-2.65-.79-3.51m-2.02 8.42a15.6 15.6 0 0 0-.13-3.66 5.4 5.4 0 0 0-1.3-2.69c-.22.13-.6-.01-.6-.32-.38-.07-.8.09-1.25.61-1.66 1.96 1.4 4.73 3.17 6.09a.42.42 0 0 1 .11-.03m28.02-7.32c-.28-3.54-1.23-7.23-3.82-9.8a8.32 8.32 0 0 0-3.8-2.17c-.16.08-.36.07-.48-.1l-.02-.01a7.7 7.7 0 0 0-4.32.45c-7.03 2.86-4.85 10.91-5.36 16.82-.2 2.35-1.37 4.34-3.7 5.08-2.31.72-4.65-.17-6.36-1.74 1.41 3.08 4.2 5.23 7.38 6.41 3.52 1.3 7.83 2.03 11.54 1.28 7.48-1.53 9.45-9.6 8.94-16.22m-.5-6.79c.64-.38 1.4-1.46 1.92-2.25-1.02.07-2 .27-2.98.61.34.52.64 1.07.9 1.64.06-.02.11-.01.17 0"/><path id="o9qmf" d="M712.38 602.35c-.72-2.03-2.98-3.3-4.97-2.22a4.7 4.7 0 0 0-2.1 2.69c-.6 1.8-.15 5.46-3.03 5.27a.34.34 0 0 0-.34.2h-.02c-.27-.1-.45.34-.2.46a8.21 8.21 0 0 0 7.95-.33c1.98-1.25 3.56-3.68 2.71-6.07m-.68 2.1a5.4 5.4 0 0 1-2.26 3.16 7.7 7.7 0 0 1-5.8 1.15 3.41 3.41 0 0 0 1.78-1.98c.77-2 .46-7.01 4.09-6.18 1.63.38 2.53 2.31 2.19 3.85"/><path id="o9qmg" d="M709.13 590.2c-2 .8-1.96 3.28-.83 4.78.2.26.74.12.58-.25-.45-1.08-.86-2.63.29-3.44 1.48-1.05 2.44 1.04 2.54 2.22.05.61.99.63.96 0-.06-1.77-1.46-4.16-3.54-3.32"/><path id="o9qmh" d="M750.66 624.66c-1.54-5.67-6.17-10.15-12.31-9.83-6.1.31-9.67 5.25-10.38 10.94l1.37-.37c-5.91-10.87-23.05-12.67-31.41-3.64-3.88 4.18-5.45 10.6-1.27 15.18 4.16 4.55 10.46 3.81 14.8.03.27-.24.28-.8 0-1.04-10.47-8.65-33.1 6.42-20.99 17.91 9.37 8.9 30.42 1.23 32.5-11.24.15-.91-1.19-1.33-1.43-.39-6.84 27.15 43.07 29.26 37.65 1.66l-1.42.4c1.66 5.94 5.53 13.59 12.72 13.5 6.93-.08 12.38-7.8 14.64-13.6 3.57-9.15-3.32-17.65-13.03-16.31-4.46.62-7.75 3.56-8.33 8.09-.08.62.67.83 1.1.64 6.02-2.6 6.48-8.83 2-13.29-5.26-5.25-12.75-4.42-17.44 1.03-.62.72.42 1.77 1.04 1.05 4-4.66 10.11-5.72 14.89-1.49 4.18 3.7 4.22 9.08-1.23 11.42l1.11.64c1.23-9.54 15.92-8.23 18.93-.56 2.42 6.13-2.53 13.68-6.8 17.66-8.41 7.85-15.83-.76-18.18-9.18-.25-.92-1.6-.53-1.42.4 4.93 25.1-41.08 23.22-34.8-1.67l-1.43-.39c-1.22 7.36-8.62 11.7-15.36 13.16-6.6 1.42-16.52.26-17.45-8.14-.99-8.92 11.36-13.95 18.62-11.85.39.11 2.13.54 2.22.96.18.9-2.9 1.91-3.38 2.04a8.45 8.45 0 0 1-7.93-1.92c-4.63-4.27-2.45-10.79 1.6-14.56 7.96-7.41 23-5.35 28.21 4.25.39.7 1.29.29 1.37-.38 1.55-12.3 16.74-12 19.8-.72.25.92 1.67.53 1.42-.4"/><path id="o9qmi" d="M831.99 592.49c-5.69-1.98-11.92 1.07-12.91 7.3-.78 4.87 2.11 8.5 6.23 10.52 7.95 3.89 21.83 4.68 25.37-5.46h-1.42c1.5 4.05 4.97 7.06 9.2 4.39 2.92-1.84 4.53-5.84 1.58-8.4l-.71 1.24c3.98 1.21 8.56 1.22 11.34-2.35 2.25-2.88 2.5-7 1.47-10.41-1.1-3.6-3.8-6.64-7.58-7.36-5.73-1.1-11.17 3-15.13 6.6l1.23.32c-.56-3.49-2.8-7.47-6.75-7.75-4.09-.28-5.71 3.74-6.17 7.14l1.37-.37c-1.1-1.74-3.18-2.15-5.03-1.36-2.67 1.14-3.26 4.03-3.02 6.66.08.94 1.56.95 1.47 0-.17-1.82-.12-3.87 1.59-5.02 1.16-.78 2.88-.87 3.72.46.42.67 1.28.33 1.37-.37.4-2.96 2.01-6.65 5.67-5.43 2.73.9 3.94 3.84 4.36 6.43.1.59.86.66 1.23.33 5.74-5.22 16.94-10.59 20.25.11.86 2.77.78 6.13-.85 8.61-2.3 3.53-6.53 3.44-10.15 2.34-.68-.21-1.28.74-.72 1.23 4 3.46-5.04 11.45-8.32 2.57-.26-.69-1.17-.7-1.42 0-2.82 8.08-13.3 7.9-20.07 5.8-2.76-.87-6.02-2.22-7.61-4.8-4.29-6.91 3.11-13.95 10.02-11.55.9.31 1.28-1.11.39-1.42"/><path id="o9qmj" d="M761.52 620.23c5.25-8.68 11.87-16.6 20.71-21.77 12.77-7.48 27.8-7.75 41.96-4.88.92.19 1.32-1.23.39-1.42-14.27-2.9-29.37-2.69-42.35 4.6-9.4 5.28-16.46 13.59-21.98 22.72-.5.82.78 1.56 1.27.75"/><path id="o9qmk" d="M755.12 620.86c-.04-5.85 4.82-11 8.74-14.81 5.04-4.9 10.8-9.1 16.8-12.73 6.3-3.8 12.57-6.28 19.98-7.05 10.62-1.1 21.21.99 31.57 3.11.92.2 1.32-1.23.39-1.42-11.17-2.3-22.63-4.51-34.05-2.92-7.2 1-13.25 3.69-19.38 7.46-6.34 3.9-12.46 8.44-17.65 13.8-3.74 3.88-7.91 8.86-7.87 14.56 0 .95 1.48.96 1.47 0"/><path id="o9qml" d="M747 617.23a78.4 78.4 0 0 1 39.36-33.1c15.65-5.85 36.38-8.6 51.17.65.8.5 1.54-.77.74-1.27-15.13-9.48-36.3-6.79-52.3-.8a79.98 79.98 0 0 0-40.23 33.78c-.48.82.79 1.56 1.27.74"/><path id="o9qma" d="M740.15 570.78h109.67v44.84H740.15z"/><path id="o9qmn" d="M741.5 615.24c7.35-15.5 21.18-27.03 36.42-34.32 14.9-7.13 32.67-11.03 49.02-7.3 8.38 1.92 15.98 6.05 21.65 12.59.62.72 1.66-.33 1.04-1.05-10.58-12.2-27.25-15.57-42.7-14.03-17.55 1.74-34.76 9.1-48.34 20.34-7.63 6.31-14.1 14.04-18.36 23.02-.4.85.86 1.6 1.27.75"/><path id="o9qmo" d="M765.57 622.25c11.65-17.84 34.44-29.18 55.63-24.81.93.19 1.32-1.23.4-1.43-21.88-4.5-45.27 7.07-57.3 25.5-.52.79.76 1.53 1.27.74"/><path id="o9qmp" d="M747.76 613.94c1.46 3 3.28 5.96 6.28 7.59.49.26 1.1-.07 1.1-.64.03-3.97-2.99-6.91-4.16-10.53l-1.08.83c1.74.98 3.09 2.46 4.88 3.38a.75.75 0 0 0 1.1-.64c.18-2.62-2.38-4.94-1.53-7.51l-1.34.18c.75 1.06 2.76 5.2 4.6 4.65 2.83-.83-.57-7.16-.07-8.6l-1.35.18c1.55 2.04 2.3 4.38 4.59 5.71.43.26.92 0 1.08-.44.94-2.7-1.46-4.82-.76-7.52l-1.23.33c1.1 1.33 1.82 2.87 3 4.13.34.35.92.25 1.16-.15 1.48-2.46-1.34-4.85.18-7.33h-1.27c.93 1.8 1.29 3.58 2.75 5.03.32.33.93.28 1.15-.15 1.38-2.57-.53-5.21.44-7.88l-1.34.17c.87 1.87.93 3.89 2.07 5.64.24.37.83.53 1.15.15 2.12-2.53-.3-5.65 1.24-8.43h-1.28c.75 1.34.9 6.56 3.3 6.27 2.4-.29 1.04-6.46 1.91-7.96h-1.27c1.07 1.93 1.47 3.92 2.94 5.6.4.45 1.05.15 1.23-.33 1-2.63-.67-5.92 1.9-7.84l-1.08-.44c.75 1.92.47 3.85 1.58 5.63.32.51.94.44 1.27 0 1.68-2.2-.59-5.08 1.57-7.19l-1.23-.32c.63 1.84.66 3.7 1.58 5.44.22.42.83.47 1.16.15 2.07-2.05-.1-5.34 2.05-7.15l-1.23-.33c.19.68.18 8.42 3.22 6 .95-.77.48-2.7.63-3.7.3-1.92.94-2.83 1.64-.8.36 1.06.05 1.62.78 2.62.25.34.83.56 1.16.15 1.07-1.36.49-3.72 1.48-4.87 1.6-1.86 1.18.95 1.2 1.96 0 .88.1 1.58.48 2.38.19.4.87.5 1.15.15.9-1.09 1.03-2.21 1.25-3.57.05-.65.16-1.3.32-1.93 1.83-1.14 2.61-1.03 2.34.34.21.9-.19 2.16-.1 3.13.05.48.62 1.01 1.1.63 1.15-.88 1.47-2.1 1.95-3.41.21-.58 1.27-3.92 2.56-3-.17-.12-.95 3.63-.92 4.27.04.94 1.51.95 1.47 0-.08-1.76.73-3.22 1.1-4.89.08-.38-.12-.8-.52-.9-5.1-1.26-3.64 4.54-6.38 6.66l1.11.64c-.2-2.06 1.16-6.3-2.15-6.37-4.04-.07-2.53 5.36-4.17 7.36l1.16.15c-.75-1.59 1.27-7.08-2.17-6.56-3.06.47-1.9 5.01-3.3 6.79l1.15.15c-.69-.94-.57-7.83-3.85-4.74-.96.9-1.2 2.72-1.32 3.95-.13 1.45-.3 1.97-.71.13-.23-1.02.05-2.07-.24-3.1-.16-.58-.82-.68-1.23-.33-2.44 2.04-.04 5.15-2.06 7.14l1.16.15c-.86-1.62-.85-3.38-1.43-5.08-.18-.52-.82-.73-1.23-.33-2.42 2.36-.04 5.17-1.8 7.49h1.27c-.99-1.6-.76-3.56-1.43-5.28-.15-.4-.66-.75-1.08-.44-3.35 2.48-1.28 5.31-2.58 8.72l1.23-.33c-1.3-1.48-1.76-3.58-2.7-5.3-.28-.49-1-.47-1.28 0-1.12 1.92-.24 4.1-.84 6.07-.42 1.36-.69-.86-.92-1.69-.26-.91-.44-1.84-.9-2.68-.27-.48-1-.48-1.28 0-1.36 2.47.68 6.12-1 8.13l1.16.15c-1.13-1.74-1.21-3.8-2.07-5.64-.3-.63-1.15-.36-1.35.17-.86 2.37.86 5.39-.29 7.54l1.16-.15c-1.3-1.3-1.7-3.14-2.52-4.74-.26-.5-1-.45-1.27 0-1.53 2.49 1.11 5.19-.18 7.34l1.16-.15c-1.18-1.25-1.92-2.81-3.01-4.14-.36-.43-1.1-.17-1.23.33-.7 2.66 1.64 4.98.76 7.52l1.08-.44c-1.97-1.15-2.74-3.45-4.06-5.18-.38-.51-1.12-.46-1.34.17-.74 2.13.12 3.05.67 5.06 1.17 4.3-1.53-.1-2.51-1.47-.37-.52-1.14-.45-1.35.18-.98 2.97 1.67 5 1.49 7.9l1.1-.63c-1.78-.92-3.14-2.4-4.88-3.38-.53-.3-1.28.2-1.08.83 1.11 3.42 4.13 6.43 4.11 10.14l1.11-.63c-2.78-1.51-4.4-4.3-5.75-7.07-.41-.85-1.68-.1-1.27.75"/><path id="o9qmq" d="M805.25 583.98c.18.7.22.77.75 1.27.27.25.78.31 1.04 0 1.4-1.69 2.08-3.9 3.97-5.16l-1.1-.64a7.15 7.15 0 0 0 .4 3.59c.23.6.98.72 1.35.17 1.03-1.52 1.86-3.15 3.07-4.55l-1.16-.15c.72 1.33-2 6.23 1.01 6.12 1.16-.04 1.72-1.38 2.21-2.2.47-.75.81-1.58 1.29-2.33 1.45-2.28.42-.33-.22 1.44-.45 1.24-1.5 2.56-.2 3.72.9.8 1.67.5 2.45-.3.6-.63.82-1.56 1.23-2.3.39-.7 1-2.64.9-1.52-.14 1.6-.97 3.07-.67 4.7.07.38.56.64.9.52 2.35-.8 2.11-3.21 3.61-4.77 2.64-2.75 1.04.85.74 1.91a5 5 0 0 0-.18 2.9c.13.48.66.66 1.08.44 2.4-1.23 3-5 5.63-5.57l-.9-.91c-.5 2.22-2.3 3.51-2.46 5.84-.03.47.5.85.93.71 2-.65 2.46-2.48 4.11-3.65l-1.1-.64-.65 2.83c-.41.85.85 1.6 1.27.74.6-1.25.87-2.18.85-3.57 0-.52-.64-.97-1.1-.63-1.27.89-2.4 3.05-3.77 3.5l.93.71c.15-2.03 1.97-3.48 2.4-5.45a.75.75 0 0 0-.9-.9c-3.14.67-3.33 4.36-5.98 5.72l1.08.44c-.55-1.93 2.6-5.5.62-7.04-1.7-1.32-3.35.96-4.04 2.18-.47.85-.87 1.76-1.3 2.63-1.02 2.05-.26.42-.1-.4.16-.9.88-2.47.63-3.4-.4-1.44-1.25-1.13-2.23-.3-.98.8-1.15 2.5-2.01 3.2-1.52 1.22.21-1.73.38-2.68.22-1.25.11-3.28-1.58-2.8-1.83.53-2.15 3.87-3.31 5.07-1.32 1.34-.16-1.44-.08-2.53.06-.77.19-1.47-.2-2.18-.21-.4-.85-.5-1.16-.15-1.28 1.5-2.19 3.22-3.3 4.86l1.35.17a5.12 5.12 0 0 1-.35-3.19c.05-.55-.67-.93-1.1-.63-1.1.72-4 3.3-3.61 4.77-.24-.92-1.66-.53-1.42.4"/><path id="o9qmr" d="M762.52 617.11c-.15.76.35 1.48.77 2.07.56.79 1.18 1.53 1.86 2.22.67.68 1.7-.37 1.04-1.04a16.7 16.7 0 0 1-2-2.48l-.18-.33c-.1-.15-.01-.35-.07-.05.18-.92-1.24-1.32-1.42-.39"/><path id="o9qms" d="M763.26 615.57c1 1.2 1.91 2.46 3 3.57.67.68 1.71-.36 1.05-1.04-1.1-1.11-2.02-2.37-3-3.57-.61-.73-1.65.32-1.05 1.04"/><path id="o9qmt" d="M764.08 612.79a68 68 0 0 1 3 4.51c.51.8 1.78.06 1.28-.74a67.99 67.99 0 0 0-3-4.51c-.57-.76-1.84-.02-1.28.74"/><path id="o9qmu" d="M766.14 610.53c1.38 1.89 1.77 4.32 3.5 5.98.69.65 1.73-.39 1.04-1.05-1.62-1.54-1.97-3.9-3.27-5.67-.55-.76-1.83-.02-1.27.74"/><path id="o9qmv" d="M768.32 609.23c.8 2 1.41 4.07 2.71 5.81.56.75 1.84.02 1.27-.74-1.22-1.65-1.81-3.58-2.56-5.47-.34-.87-1.76-.49-1.42.4"/><path id="o9qmw" d="M770 606.78c.63 1.9 1.34 3.67 2.64 5.21.6.73 1.64-.32 1.04-1.04-1.13-1.34-1.71-2.92-2.26-4.56-.3-.9-1.72-.51-1.42.4"/><path id="o9qmx" d="M772.07 604.33a25.13 25.13 0 0 0 2.9 5.44c.55.76 1.82.02 1.26-.74a23.61 23.61 0 0 1-2.74-5.09c-.36-.87-1.78-.49-1.42.4"/><path id="o9qmy" d="M775.14 602.62c.76 1.75 1.27 3.62 2.26 5.26.48.82 1.76.08 1.27-.74-.99-1.64-1.5-3.51-2.26-5.26-.38-.87-1.65-.12-1.27.74"/><path id="o9qmz" d="M778.06 600.37c.58 1.75 1.12 3.52 1.7 5.27.3.9 1.72.5 1.42-.4-.58-1.75-1.12-3.51-1.7-5.26-.3-.9-1.72-.51-1.42.4"/><path id="o9qmA" d="M781.06 598.3c.4 1.56.75 3.13 1.14 4.7.23.92 1.64.53 1.42-.4-.4-1.56-.75-3.13-1.14-4.7-.22-.92-1.64-.53-1.42.4"/><path id="o9qmB" d="M783.5 596.42c.56 2.12.82 4.36 2.14 6.19.55.76 1.83.02 1.27-.75-1.24-1.72-1.47-3.83-2-5.84-.23-.91-1.65-.52-1.41.4"/><path id="o9qmC" d="M787.63 594.91c.72 2.15.63 4.47 1.51 6.58.36.87 1.78.49 1.42-.39-.88-2.1-.8-4.43-1.51-6.58-.3-.9-1.72-.51-1.42.4"/><path id="o9qmD" d="M790.63 593.59c.67 1.88.43 3.9.94 5.82.25.92 1.67.53 1.42-.39-.51-1.92-.26-3.94-.94-5.83-.32-.88-1.75-.5-1.42.4"/><path id="o9qmE" d="M793.42 592.83c-.17 2.04.03 4.06.6 6.02.25.91 1.67.53 1.41-.39a15.6 15.6 0 0 1-.54-5.63c.08-.95-1.4-.94-1.47 0"/><path id="o9qmF" d="M795.7 592.64c.37 1.62.44 3.3.94 4.89.28.9 1.7.52 1.42-.4-.5-1.6-.57-3.26-.95-4.88-.21-.93-1.63-.54-1.42.39"/><path id="o9qmG" d="M799.14 592.43c.42.72.33 1.67.33 2.48s0 1.62.17 2.42c.2.93 1.61.54 1.42-.39-.37-1.72.27-3.65-.65-5.25-.47-.82-1.74-.08-1.27.74"/><path id="o9qmH" d="M801.02 592.24c.67 1.28.66 2.74.66 4.14 0 .95 1.47.95 1.47 0 0-1.68-.06-3.36-.86-4.88-.44-.84-1.71-.1-1.27.74"/><path id="o9qmI" d="M803.76 591.7c.2 1.21.22 2.45.83 3.56.46.83 1.73.09 1.27-.75-.53-.96-.51-2.15-.68-3.2-.15-.94-1.57-.54-1.42.39"/><path id="o9qmJ" d="M807.11 590.17c.02 1.52.2 3.02.4 4.52.14.94 1.56.54 1.43-.39-.2-1.37-.34-2.74-.36-4.13 0-.95-1.48-.95-1.47 0"/><path id="o9qmK" d="M809.38 591.5c.16.85.16 1.75 0 2.61-.16.93 1.26 1.33 1.43.4.2-1.14.2-2.27 0-3.4-.18-.94-1.6-.55-1.43.38"/><path id="o9qmL" d="M811.64 591.11c.17.89.13 1.77-.18 2.62-.33.9 1.1 1.28 1.42.4.4-1.1.4-2.27.18-3.4-.17-.94-1.59-.55-1.42.38"/><path id="o9qmM" d="M813.89 591.47a12.98 12.98 0 0 0-.18 3.97c.13.94 1.55.54 1.41-.4-.15-1.05.02-2.13.19-3.17.15-.93-1.27-1.33-1.42-.4"/><path id="o9qmN" d="M816.33 591.3c.17.92.15 1.88 0 2.8-.13.93 1.28 1.33 1.43.4.18-1.21.21-2.4 0-3.6-.18-.93-1.6-.53-1.43.4"/><path id="o9qmO" d="M818.74 591.47c0 1.2-.17 2.38-.34 3.57-.13.93 1.28 1.33 1.42.4.19-1.33.38-2.63.4-3.97 0-.95-1.47-.95-1.48 0"/><path id="o9qmP" d="M821.02 592.24c.16.88-.05 1.78-.37 2.61-.34.9 1.09 1.28 1.42.4.42-1.1.57-2.25.37-3.4-.16-.94-1.58-.55-1.42.39"/><path id="o9qmQ" d="M1318.78 646.94c2.8.11 5.55.5 8.3 1.09a.5.5 0 0 0 .5-.14c.16.1.38.1.52-.07 1.64-2.11 3.44-4.71 4.36-7.32.28 2.32 1 4.68 1.52 6.92.06.23.36.41.58.38a18.73 18.73 0 0 1 6.26-.11c.35.05 1.8.2 2 .43.6.7-2.45 2.87-2.98 3.33-.94.83-1.89 1.64-2.81 2.47a.3.3 0 0 0-.09.14c-.14.04-.26.15-.23.34.39 2.83 1.07 5.6 1.48 8.43a50.63 50.63 0 0 1-6.7-5.13.47.47 0 0 0-.63-.02c-.14-.2-.42-.28-.63-.04-1.19 1.32-2.34 2.66-3.59 3.92-.47.47-.95.93-1.44 1.37-.49.45-1.76 2.22-2.13.75-.15-.6.43-1.96.58-2.57.16-.63.33-1.27.51-1.9.5-1.67 1.17-3.28 1.65-4.95.2-.12.3-.4.06-.6a63.46 63.46 0 0 1-7.09-6.72"/><path id="o9qmR" d="M1367.62 591.49a16.39 16.39 0 0 0-6.46-8.7c.57-1.68 1.4-3.66 1.41-5.29 0-.71-.25-1.24-.95-1.48-3.25-1.12-6.95 4.57-9.54 2.3-1-.88-4.38-5.32-6.15-3.86-.73.6-.44 2.19-.44 2.95 0 1.97.1 3.96.47 5.9.06.32.56.23.56-.08 0-1.42-.07-2.84-.05-4.27.02-1.42-.31-3.64 1.65-2.82 1.21.5 2.35 1.98 3.17 2.97.4.48.7.96 1.33 1.12 1.78.44 4.07-1.59 5.54-2.31.62-.31 1.53-.82 2.26-.74 1.1.13.83.46.7 1.4-.22 1.56-.92 3.18-1.34 4.7-.14.52.39.82.78.68a14.9 14.9 0 0 1 5.55 7.16c-1.21.14-2.43.18-3.66.04-1.45-.16-2.81-.88-4.23-1.02-1.58-.16-2.13 1.16-2.76 2.4-.5 1-.93 2.02-1.43 3.02-.24.49-.49.98-.78 1.44-.48.77-.65 1.6-1.65 1.13-1.11-.51-1.24-2.45-1.45-3.6-.3-1.57-.4-3.14-.38-4.74 0-.42-.4-.68-.78-.6a46.44 46.44 0 0 1-5.31.82c-.95.08-1.5.52-1.59-.6-.13-1.67 3.36-4.19 4.45-5.43.18-.21-.06-.59-.33-.42a29.22 29.22 0 0 0-4.68 4c-.72.74-2.05 1.87-1.33 3.04.55.9 1.79.74 2.69.7 1.9-.12 3.79-.4 5.66-.76.1 3.4 1.07 12.95 4.96 8.29.8-.97 1.38-2.1 1.91-3.23.47-.99 1.02-3.18 1.96-3.85.94-.69 3.88.58 5.07.7 1.59.16 3.15.07 4.72-.17.33-.05.54-.49.45-.8"/><path id="o9qmS" d="M1384.5 616.1a11.5 11.5 0 0 0-4.53-6.1c.4-1.18.99-2.57 1-3.71 0-.5-.18-.87-.68-1.04-2.28-.78-4.87 3.2-6.69 1.6-.7-.6-3.07-3.72-4.31-2.7-.51.42-.31 1.54-.31 2.08 0 1.38.07 2.77.33 4.13.04.22.4.17.4-.06 0-1-.05-1.99-.04-2.99 0-1-.22-2.55 1.16-1.98.85.36 1.64 1.4 2.22 2.08.28.34.48.68.93.79 1.25.31 2.86-1.11 3.89-1.62.43-.22 1.07-.58 1.58-.52.77.1.58.33.5.98-.16 1.1-.65 2.23-.95 3.3-.1.37.27.58.55.48a10.45 10.45 0 0 1 3.9 5.02c-.86.1-1.71.12-2.57.03-1.02-.11-1.98-.62-2.97-.72-1.1-.1-1.5.82-1.94 1.69-.35.7-.65 1.42-1 2.11-.17.35-.34.7-.55 1.02-.33.54-.46 1.12-1.16.8-.78-.37-.87-1.73-1.01-2.53-.21-1.1-.28-2.2-.27-3.33 0-.3-.28-.48-.55-.42a32.87 32.87 0 0 1-3.72.57c-.66.06-1.05.37-1.11-.42-.1-1.17 2.35-2.94 3.11-3.8.13-.16-.04-.42-.22-.3-1.21.8-2.27 1.78-3.29 2.8-.5.52-1.44 1.32-.93 2.13.39.63 1.25.53 1.88.5 1.34-.09 2.66-.28 3.97-.54.08 2.39.76 9.1 3.48 5.82.57-.68.97-1.47 1.35-2.27.33-.7.71-2.22 1.37-2.7.66-.48 2.72.4 3.56.5 1.1.11 2.2.04 3.3-.12.24-.04.39-.35.32-.56"/><path id="o9qmT" d="M1324.48 618.7a13.88 13.88 0 0 1 5.45-7.39c-.49-1.42-1.2-3.1-1.2-4.47 0-.61.2-1.06.8-1.26 2.75-.95 5.9 3.86 8.08 1.92.85-.74 3.7-4.5 5.2-3.27.62.5.38 1.84.39 2.5 0 1.66-.09 3.34-.4 4.99-.04.27-.47.2-.47-.07 0-1.2.05-2.4.04-3.6-.02-1.22.25-3.1-1.4-2.4-1.03.43-2 1.69-2.68 2.52-.34.41-.59.82-1.13.95-1.51.38-3.45-1.33-4.7-1.94-.53-.26-1.3-.7-1.91-.62-.93.11-.7.4-.6 1.18.2 1.32.8 2.7 1.15 3.99.12.43-.32.69-.65.57a12.63 12.63 0 0 0-4.7 6.08c1.03.12 2.07.14 3.1.03 1.23-.14 2.39-.75 3.59-.88 1.34-.13 1.8.98 2.34 2.03.43.84.8 1.7 1.21 2.55.21.42.42.83.67 1.22.4.66.56 1.35 1.4.96.94-.44 1.05-2.09 1.22-3.05.25-1.34.33-2.66.31-4.02 0-.36.34-.58.67-.5a39.34 39.34 0 0 0 4.5.67c.8.07 1.26.44 1.34-.52.1-1.4-2.85-3.53-3.78-4.58-.16-.18.05-.5.27-.35 1.47.96 2.75 2.13 3.98 3.37.61.63 1.74 1.59 1.14 2.57-.47.76-1.52.64-2.28.6-1.61-.1-3.21-.33-4.8-.63-.08 2.88-.88 10.98-4.18 7.03a12.7 12.7 0 0 1-1.63-2.73c-.4-.84-.87-2.69-1.66-3.26-.8-.58-3.3.5-4.3.6a15.8 15.8 0 0 1-4-.12c-.28-.05-.46-.42-.38-.68"/><path id="o9qmU" d="M1389.5 591.34a2.5 2.5 0 1 1-5.01 0 2.5 2.5 0 0 1 5.01 0"/><path id="o9qmV" d="M1379.78 575.77a2.5 2.5 0 1 1-5 .01 2.5 2.5 0 0 1 5 0"/><path id="o9qmW" d="M1327.01 635.46a2.5 2.5 0 1 1-5.01 0 2.5 2.5 0 0 1 5.01 0"/><path id="o9qmX" d="M1352.05 633.54a1.39 1.39 0 1 1-2.78 0 1.39 1.39 0 0 1 2.78 0"/><path id="o9qmY" d="M1390.87 575.76a1.39 1.39 0 1 1-2.78 0 1.39 1.39 0 0 1 2.78 0"/><path id="o9qmZ" d="M1410.3 588.82a1.39 1.39 0 1 1-2.77 0 1.39 1.39 0 0 1 2.78 0"/><path id="o9qmaa" d="M1318.24 623.7a1.39 1.39 0 1 1-2.78 0 1.39 1.39 0 0 1 2.78 0"/><path id="o9qmab" d="M1319.63 605.65a1.39 1.39 0 1 1-2.78 0 1.39 1.39 0 0 1 2.78 0"/><path id="o9qmac" d="M1307.78 637.08a1.39 1.39 0 1 1-2.78 0 1.39 1.39 0 0 1 2.78 0"/><path id="o9qmad" d="M1321.02 566.29a1.39 1.39 0 1 1-2.78 0 1.39 1.39 0 0 1 2.78 0"/><path id="o9qmb" d="M1418.12 565.51h50.22v42.38h-50.22z"/><path id="o9qmaf" d="M1419.13 577.69c-3.6 11.86 2.77 23.64 14.08 28.26 13.84 5.66 27.43-1.72 35.02-13.55.37-.58-.24-1.3-.87-1.14-17.33 4.63-32.3-7.64-33.84-24.98-.05-.5-.46-.87-.98-.74-6.42 1.56-10.41 6.29-13.33 11.96-.46.88.87 1.67 1.33.78 2.74-5.32 6.36-9.78 12.4-11.26l-.97-.74c1.64 18.34 17.45 31.37 35.8 26.47l-.87-1.13c-7.07 11.02-19.55 18.07-32.56 13.13-10.9-4.14-17.16-15.32-13.72-26.65.29-.96-1.2-1.36-1.5-.41"/><path id="o9qmag" d="M1427.53 590.85c.98 1.52 2.68 3.65 4.77 3.19 2.05-.45 2.45-2.9 2.48-4.64.02-1-1.53-1-1.54 0-.02.9-.08 2.97-1.34 3.14-1.3.18-2.46-1.58-3.04-2.47-.54-.83-1.88-.06-1.33.78"/><path id="o9qmah" d="M1441.6 595.45c1.77.55 3.75.94 5.52.13 1.65-.75 2.63-2.33 3.38-3.91.43-.9-.9-1.68-1.33-.78-.59 1.22-1.3 2.58-2.56 3.23-1.44.73-3.14.29-4.6-.16-.95-.3-1.36 1.19-.41 1.49"/><path id="o9qmai" d="M1463.8 573.5a1.4 1.4 0 0 0-.3-.46c-.58-.57-1.42.02-1.29.75l.04.22c.1.54.94.78 1.3.34 1.14-1.42.8-3.44 1.9-4.81h-1.1c.81.98-.43 2.19-1.23 2.6l1.13.46c-.16-1.2-.22-2.43.38-3.51l-1.05.28c2.42 1.13-.55 3.94-1.71 5.04l1.21.94c.92-1.31 1.38-3.8 3.03-4.38l-.98-.75c.05 2.07-1.81 3.7-3.32 4.86.37.3.75.58 1.13.87.18-.43.32-.89.5-1.32.28-.64-.17-1.25-.87-1.14l.02-.02c.42-.7-.4-1.4-1.06-1.06a1.2 1.2 0 0 1-.05-.85c.05-.53-.53-.84-.98-.74-.84.08-1.33-.27-1.49-1.06l-.95.95c.29.04.58.03.87.07l.2-1.51c-.42-.08-.62-.3-.61-.67l-.54.95c1.1-.24 1.72.51 1.67 1.5l1.52-.2c-.12-.33-.2-.67-.26-1.02l-.56.74c.95-.13-.41-.28-.02.02-.15-.11 0 .75-.14-.4l-.77.77c.88-.02 1.15.55 1.4 1.24.31.84 1.43.68 1.52-.2.04-.38-.03-.77-.1-1.14l-1.4.6c.24.44.6.84.77 1.32.2.59.84.72 1.3.35.28-.24.36-.34.55-.66h-1.33l.03-.36c-.37-.6-1.52-.42-1.44.4.06.62.68.2.64-.08-.02-.09-.26-.2-.3-.28-.2-.37-.58-.7-.8-1.06-.21-.33-.35-.87-.6-1.16-.08-.1-.02-.3-.08-.38-.4.2-.47.3-.22.28.16.04.32.1.47.16l.18-1.41c-.55.12-1.03.42-1.55.65-.42.17-.43.71-.28 1.05.7 1.58 2.1 2.79 2.63 4.44l1.29-.75c-.5-.47-.89-.94-1.17-1.58-.36-.84-1.58-.21-1.4.6.56 2.6 3.4 1.68 3.53-.63l-1.52.2c.29 1.09.33 2.2.7 3.25.24.66 1.33.8 1.5 0 .2-1.04-.02-1.68-.5-2.61-.25-.47-.86-.47-1.22-.16-.7.6-1.45 1.57-.94 2.54.46.87 1.53.93 2.36.65 1.89-.64 3.21-3.24 3.16-5.14-.03-1-1.58-1-1.55 0 .03.82-.34 1.62-.74 2.32-.18.32-.4.8-.73 1-.4.23-1.28.43-.47-.28l-1.2-.15c.27.42.38.9.33 1.42h1.5c-.38-1.05-.42-2.17-.7-3.24-.24-.87-1.47-.65-1.53.2a93.02 93.02 0 0 1-1.9.81c.31.75.8 1.34 1.4 1.9.54.5 1.53 0 1.29-.76-.57-1.8-2.03-3.09-2.79-4.8l-.28 1.05c.4-.17.77-.4 1.2-.5.6-.12.8-1.14.18-1.4-.83-.36-2.02-.7-2.48.37-.37.88.29 2.02.73 2.75.44.72 1.09 1.75 1.9 2.08 1.02.4 1.6-.41 1.5-1.36l-1.43.4c.5.78 1.41 1.57 2.4 1.08.98-.47.76-1.56.23-2.3-.33-.45-1.02-.53-1.33 0l-.32.35 1.3.34c-.23-.64-.62-1.1-.94-1.7-.45-.82-1.54-.22-1.41.6.04.24.06.48.04.73l1.51-.2c-.5-1.39-1.32-2.41-2.89-2.39-.38 0-.82.35-.77.77.2 1.58 1.55 2.97 2.89 1.36 1.21-1.46.02-2.7-1.6-2.46-.3.05-.6.45-.57.75a7 7 0 0 0 .3 1.43c.27.84 1.48.67 1.53-.2.1-2.13-1.6-3.44-3.63-3-.43.1-.62.56-.54.95.24 1.22.87 1.71 2.1 1.8.86.06 1.07-1.4.2-1.52-.28-.04-.57-.03-.86-.07-.53-.08-1.15.32-.95.95.52 1.58 1.71 2.48 3.4 2.14l-.98-.75c-.16 1.56.7 3.03 2.37 2.19l-1.05-1.06c-.98 1.6.04 2.57 1.73 2.3l-.88-1.14c-.24.56-.43 1.13-.66 1.7-.25.6.61 1.26 1.13.86 1.97-1.5 4.16-3.5 4.1-6.19-.02-.47-.5-.91-.98-.74-2.3.8-2.7 3.29-3.95 5.09-.52.74.6 1.52 1.21.93 1.9-1.8 5.14-5.72 1.4-7.47-.38-.17-.84-.11-1.06.28-.83 1.47-.76 3.07-.54 4.7.08.53.75.66 1.14.46 1.87-.95 3.01-3.25 1.55-5.02-.25-.3-.85-.3-1.1 0-1.14 1.42-.8 3.44-1.9 4.81l1.3.34-.05-.22-1.29.75.07.14c.42.9 1.75.12 1.33-.78"/><path id="o9qmaj" d="M1451.9 562.26c-1.08-1.86-2.7-1.44-3.2.55-.58 2.21.36 4.35 1.22 6.35.17.39.73.47 1.06.28 2.55-1.45 7.36-2.61 6.43-6.56-.8-3.39-5.02-1.2-6.2.67l1.4.19c-.25-1.18-.8-2.09-1.99-2.48-.42-.14-.8.17-.95.54-.72 1.82-.06 4.07.73 5.75.2.41.7.43 1.06.28 1.38-.6 3.09-1.26 3.97-2.56.52-.78.92-2.5.17-3.26-1.43-1.44-3.76 1.81-4.6 2.67l1.22.16c-.39-.56-.83-1.1-1.05-1.75-.28-.78-1.56-.71-1.52.2.05 1.24.3 2.42.67 3.6.15.46.7.72 1.14.46 1.46-.87 4-2.56 3.76-4.54-.07-.59-.6-.96-1.16-.67-1.24.64-1.95 1.73-2.7 2.86-.48.74.6 1.55 1.22.94l1.45-1.46c.72-.72-.33-1.69-1.1-1.09-.44.36-.83.77-1.28 1.13l1.21.94c.28-.6.67-1.15 1.18-1.56.78-.62.93-.55.63.48-.52 1.81-2.94 2.81-4.6 3.17l.74 1.29c.5-.6.78-1.34 1.29-1.94.44-.51.14-1.27-.55-1.32l-.25-.05.38.67a9.85 9.85 0 0 0-.51-2.95l-1.42.6.25.62c.33.93 1.82.53 1.49-.41a9.4 9.4 0 0 0-.4-1c-.37-.78-1.7-.22-1.41.6.29.84.43 1.66.46 2.54 0 .25.13.56.38.66.38.17.62.24 1.03.27l-.54-1.32c-.52.6-.8 1.33-1.29 1.93-.49.6-.04 1.46.75 1.3 2.48-.53 6.9-2.92 5.74-6.16-.95-2.67-4.1.53-4.68 1.8-.38.82.52 1.48 1.21.93.45-.35.84-.77 1.29-1.13l-1.1-1.09-1.44 1.45 1.21.94c.6-.91 1.14-1.79 2.14-2.3l-1.17-.67c.16 1.32-2.02 2.62-2.99 3.2l1.13.46a11.88 11.88 0 0 1-.62-3.17l-1.51.2c.28.8.73 1.43 1.2 2.12.28.4.85.54 1.22.16.84-.87 1.73-1.66 2.59-2.5.1-.09-.18-.2-.26-.01-.1.23-.04.55-.13.8-.2.52-.63.85-1.09 1.15-.79.53-1.67.9-2.53 1.28l1.06.27c-.63-1.33-1.15-3.13-.58-4.56l-.95.54c.65.22.8.83.92 1.4.15.68 1.07.71 1.4.18a3.76 3.76 0 0 1 2.26-1.63c1.3-.26 1.4 1.19.9 2.1-1.01 1.82-3.8 2.34-5.5 3.3.36.1.71.2 1.07.28-.45-1.04-.93-2.14-1.13-3.27a4.56 4.56 0 0 1 .16-2.24c.12-.28-.36-.92.27.17.5.87 1.83.09 1.33-.78"/><path id="o9qmak" d="M1443.33 572.41c-.04.56.27 1.14.98 1.17.3 0 .6-.14.75-.4.07-.12.1-.27.1-.4 0-.04-.05-.46-.02-.15l-.1.4.01-.04c.45-.89-.89-1.67-1.33-.78a.9.9 0 0 0-.13.45c0 .06.03.46.03.13l.39-.67-.03.02.39-.1c.05 0 .1 0 .14.02l.28.28-.04-.06.1.38c.01.15.03-.2.03-.25.03-.41-.38-.77-.77-.77-.45 0-.74.36-.78.77"/><path id="o9qmal" d="M1442.18 564.02l-.01-.02c-.2-.32-.52-.41-.88-.35-.44.07-.71.55-.7.96.04.63.73 1.09 1.31.85a.96.96 0 0 0 .46-1.36.84.84 0 0 0-.61-.4 1.03 1.03 0 0 0-.22-.02c-.07 0-.14.02-.2.03.07-.03.14-.01.2.04-.37-.18-.83-.1-1.05.27-.2.34-.1.88.28 1.06.19.1.36.16.58.16l.22-.02c.31-.03-.1-.01.08 0l-.39-.1.04.02-.27-.28a2 2 0 0 1 .02.04l-.1-.39a.4.4 0 0 1-.01.18l.38-.67-.1.06a54 54 0 0 0 .4-.1h-.1l.4.1-.1-.06.28.28-.05-.08.1.4-.01.06-.2.34-.22.12-.88-.36.02.02c.53.84 1.87.07 1.33-.78"/><path id="o9qmam" d="M1463.36 571.36c-.78-1.5-1.42-2.42-3.04-3.05-.97-.37-2.27-.74-2.95.3-1.81 2.73 3.28 5.98 4.12 8.04.22.52.85.79 1.3.34 1.18-1.18 2.95-1.47 4.14-2.66a4.15 4.15 0 0 0 .86-4.36c-1.23-3.18-4.93-1.85-6.13.56-.45.89.89 1.67 1.33.78.43-.86 1.4-2.09 2.54-1.65 1.3.49 1.17 2.47.48 3.37-1.06 1.35-3.1 1.64-4.32 2.87l1.3.34c-.68-1.63-1.9-2.7-3.03-4.02-.52-.6-2.2-3.4.04-2.38 1.13.51 1.48 1.25 2.03 2.3.45.88 1.79.1 1.33-.78"/><path id="o9qman" d="M1462.5 563.9l-.02.07.2-.34-.03.04.75-.2-.03-.02.54.54-.02-.09c-.06-.4-.58-.64-.95-.54-.44.12-.6.54-.54.95.06.34.29.52.59.65.23.09.6-.01.75-.2.12-.14.2-.26.25-.45.2-.96-1.28-1.38-1.5-.4"/><path id="o9qmao" d="M1451.98 573.5l.02-.02.74-.56h-.03l.67.38-.05-.1c-.51-.84-1.85-.07-1.33.79.17.3.4.44.74.47.3.03.7-.26.75-.56l.04-.4c0-.99-1.54-.99-1.55 0"/><path id="o9qmap" d="M1456.98 579.37l.08-.1.34-.2-.05.02h.41l-.06-.02.34.2h-.01c-.26-.33-.67-.5-1.06-.27-.32.19-.53.72-.28 1.06.27.34.6.64 1.07.52.4-.1.58-.44.71-.8.15-.4-.16-.85-.54-.95-.43-.12-.8.15-.95.54"/><path id="o9qmaq" d="M1466.85 579.41h.09c1 0 1-1.54 0-1.54h-.1c-.99 0-.99 1.55 0 1.54"/><path id="o9qmar" d="M1444.35 559.18c.16.56.39 1.01 1.06 1.02a.88.88 0 0 0 .87-1.1c-.03-.08-.14-.4-.09-.17v.4l.02-.06c.27-.96-1.22-1.37-1.49-.41a.91.91 0 0 0-.01.5c.01.07.17.4.08.15v-.4-.07l.68-.38c.34.43.48.52.41.27 0-.05-.02-.11-.04-.17-.27-.95-1.76-.54-1.49.42"/><path id="o9qmc" d="M1451.16 556.81h1.97v1.62h-1.97z"/><path id="o9qmat" d="M1452.76 557a2.1 2.1 0 0 0-.85-.19c-1-.01-1 1.53 0 1.54.14.02.16.01.07 0 .38.16.82.1 1.05-.29.2-.32.11-.89-.27-1.05"/><clipPath id="o9qmm"><use xlink:href="#o9qma"/></clipPath><clipPath id="o9qmae"><use xlink:href="#o9qmb"/></clipPath><clipPath id="o9qmas"><use xlink:href="#o9qmc"/></clipPath></defs><g><g transform="translate(-687 -539)"><g><use fill="#a3c43a" xlink:href="#o9qmd"/></g><g><g><use fill="#00a6e2" xlink:href="#o9qme"/></g><g><use fill="#00a6e2" xlink:href="#o9qmf"/></g><g><use fill="#00a6e2" xlink:href="#o9qmg"/></g><g><use fill="#00a6e2" xlink:href="#o9qmh"/></g><g><use fill="#00a6e2" xlink:href="#o9qmi"/></g><g><use fill="#00a6e2" xlink:href="#o9qmj"/></g><g><use fill="#00a6e2" xlink:href="#o9qmk"/></g><g><use fill="#00a6e2" xlink:href="#o9qml"/></g><g><g/><g clip-path="url(#o9qmm)"><use fill="#00a6e2" xlink:href="#o9qmn"/></g></g><g><use fill="#00a6e2" xlink:href="#o9qmo"/></g><g><use fill="#00a6e2" xlink:href="#o9qmp"/></g><g><use fill="#00a6e2" xlink:href="#o9qmq"/></g><g><use fill="#00a6e2" xlink:href="#o9qmr"/></g><g><use fill="#00a6e2" xlink:href="#o9qms"/></g><g><use fill="#00a6e2" xlink:href="#o9qmt"/></g><g><use fill="#00a6e2" xlink:href="#o9qmu"/></g><g><use fill="#00a6e2" xlink:href="#o9qmv"/></g><g><use fill="#00a6e2" xlink:href="#o9qmw"/></g><g><use fill="#00a6e2" xlink:href="#o9qmx"/></g><g><use fill="#00a6e2" xlink:href="#o9qmy"/></g><g><use fill="#00a6e2" xlink:href="#o9qmz"/></g><g><use fill="#00a6e2" xlink:href="#o9qmA"/></g><g><use fill="#00a6e2" xlink:href="#o9qmB"/></g><g><use fill="#00a6e2" xlink:href="#o9qmC"/></g><g><use fill="#00a6e2" xlink:href="#o9qmD"/></g><g><use fill="#00a6e2" xlink:href="#o9qmE"/></g><g><use fill="#00a6e2" xlink:href="#o9qmF"/></g><g><use fill="#00a6e2" xlink:href="#o9qmG"/></g><g><use fill="#00a6e2" xlink:href="#o9qmH"/></g><g><use fill="#00a6e2" xlink:href="#o9qmI"/></g><g><use fill="#00a6e2" xlink:href="#o9qmJ"/></g><g><use fill="#00a6e2" xlink:href="#o9qmK"/></g><g><use fill="#00a6e2" xlink:href="#o9qmL"/></g><g><use fill="#00a6e2" xlink:href="#o9qmM"/></g><g><use fill="#00a6e2" xlink:href="#o9qmN"/></g><g><use fill="#00a6e2" xlink:href="#o9qmO"/></g><g><use fill="#00a6e2" xlink:href="#o9qmP"/></g></g></g><g transform="rotate(27 2169.55 -1107.78)"><g><use fill="#00a6e2" xlink:href="#o9qmQ"/></g><g><use fill="#00a6e2" xlink:href="#o9qmR"/></g><g><use fill="#00a6e2" xlink:href="#o9qmS"/></g><g><use fill="#00a6e2" xlink:href="#o9qmT"/></g><g><use fill="#00a6e2" xlink:href="#o9qmU"/></g><g><use fill="#00a6e2" xlink:href="#o9qmV"/></g><g><use fill="#00a6e2" xlink:href="#o9qmW"/></g><g><use fill="#00a6e2" xlink:href="#o9qmX"/></g><g><use fill="#00a6e2" xlink:href="#o9qmY"/></g><g><use fill="#00a6e2" xlink:href="#o9qmZ"/></g><g><use fill="#00a6e2" xlink:href="#o9qmaa"/></g><g><use fill="#00a6e2" xlink:href="#o9qmab"/></g><g><use fill="#00a6e2" xlink:href="#o9qmac"/></g><g><use fill="#00a6e2" xlink:href="#o9qmad"/></g><g><g/><g clip-path="url(#o9qmae)"><use fill="#00a6e2" xlink:href="#o9qmaf"/></g></g><g><use fill="#00a6e2" xlink:href="#o9qmag"/></g><g><use fill="#00a6e2" xlink:href="#o9qmah"/></g><g><use fill="#00a6e2" xlink:href="#o9qmai"/></g><g><use fill="#00a6e2" xlink:href="#o9qmaj"/></g><g><use fill="#00a6e2" xlink:href="#o9qmak"/></g><g><use fill="#00a6e2" xlink:href="#o9qmal"/></g><g><use fill="#00a6e2" xlink:href="#o9qmam"/></g><g><use fill="#00a6e2" xlink:href="#o9qman"/></g><g><use fill="#00a6e2" xlink:href="#o9qmao"/></g><g><use fill="#00a6e2" xlink:href="#o9qmap"/></g><g><use fill="#00a6e2" xlink:href="#o9qmaq"/></g><g><use fill="#00a6e2" xlink:href="#o9qmar"/></g><g><g/><g clip-path="url(#o9qmas)"><use fill="#00a6e2" xlink:href="#o9qmat"/></g></g></g></g></svg>