<svg id="Capa_1" data-name="Capa 1" xmlns="http://www.w3.org/2000/svg" xmlns:xlink="http://www.w3.org/1999/xlink" viewBox="0 0 852.38 96.76"><defs><mask id="mask" x="53.15" y="3.95" width="109.67" height="44.84" maskUnits="userSpaceOnUse"><g transform="translate(0 -0.83)"><g id="mask-2"><polygon id="path-1" points="53.15 4.78 162.82 4.78 162.82 49.61 53.15 49.61 53.15 4.78" style="fill:#fff"/></g></g></mask><mask id="mask-2-2" x="790.88" y="24.82" width="63.99" height="60.57" maskUnits="userSpaceOnUse"><g transform="translate(0 -0.83)"><g id="mask-4"><polygon id="path-3" points="810.12 25.65 854.87 48.45 835.63 86.22 790.88 63.42 810.12 25.65" style="fill:#fff"/></g></g></mask><mask id="mask-3" x="842.78" y="32.08" width="2.49" height="2.34" maskUnits="userSpaceOnUse"><g transform="translate(0 -0.83)"><g id="mask-6"><polygon id="path-5" points="843.51 32.91 845.27 33.8 844.54 35.24 842.78 34.35 843.51 32.91" style="fill:#fff"/></g></g></mask></defs><title>nuestrosMEDIO</title><g id="Page-1"><g id="nuestrosMEDIO"><g id="nuestrosdestacados"><path id="Nuestros-destacados" d="M198,67.6V37.81a4,4,0,0,1,1.09-3,3.79,3.79,0,0,1,2.78-1.07,4.63,4.63,0,0,1,3.26,1.71l16.44,22.16h.1V37.81a4,4,0,0,1,1.09-3,3.79,3.79,0,0,1,2.78-1.07,3.84,3.84,0,0,1,2.82,1.06,4,4,0,0,1,1.07,3V67.6a4,4,0,0,1-1.07,3,3.76,3.76,0,0,1-4.5.56A5.06,5.06,0,0,1,222.28,70L205.87,48h-.1V67.6a4,4,0,0,1-1.07,3,3.84,3.84,0,0,1-2.82,1.06,3.79,3.79,0,0,1-2.78-1.07A4,4,0,0,1,198,67.6ZM233.59,61V47.35a4.42,4.42,0,0,1,1-3,3.41,3.41,0,0,1,2.69-1.16,3.52,3.52,0,0,1,3.26,2,4.82,4.82,0,0,1,.48,2.19V60.82a4.63,4.63,0,0,0,1.43,3.56,4.79,4.79,0,0,0,3.38,1.33,5.05,5.05,0,0,0,2.4-.58A4.5,4.5,0,0,0,250,63.45a5,5,0,0,0,.67-2.64V47.35a4.42,4.42,0,0,1,1-3,3.41,3.41,0,0,1,2.69-1.16,3.52,3.52,0,0,1,3.26,2,4.82,4.82,0,0,1,.48,2.19V61a11.56,11.56,0,0,1-1.43,5.85,9.42,9.42,0,0,1-4.22,3.84A15.19,15.19,0,0,1,245.85,72q-5.84,0-9.05-3A10.44,10.44,0,0,1,233.59,61Zm50.71-1H268.42A5.71,5.71,0,0,0,270.74,64a7.92,7.92,0,0,0,4.7,1.38,7,7,0,0,0,2.88-.54q1.19-.54,3-1.52a6.42,6.42,0,0,1,2.59-1,2.66,2.66,0,0,1,1.48.47A3.59,3.59,0,0,1,286.53,64,3.07,3.07,0,0,1,287,65.6a3.44,3.44,0,0,1-1.07,2.33A10.19,10.19,0,0,1,283,70a18.63,18.63,0,0,1-4,1.46,17.77,17.77,0,0,1-4.24.55,14.14,14.14,0,0,1-7.28-1.88,12.83,12.83,0,0,1-5-5.2,15.76,15.76,0,0,1-1.75-7.46,15.84,15.84,0,0,1,3.78-10.21A12.63,12.63,0,0,1,268.83,44a12.73,12.73,0,0,1,10.75.05,13.23,13.23,0,0,1,4.26,3.21,15.54,15.54,0,0,1,2.73,4.44,12.88,12.88,0,0,1,1,4.85Q287.56,59.95,284.3,59.95Zm-16.06-5H280.1a6.87,6.87,0,0,0-1.87-4.17,5.47,5.47,0,0,0-4.07-1.59,5.39,5.39,0,0,0-4,1.61A7,7,0,0,0,268.24,54.9ZM309,48.3a3.49,3.49,0,0,1-.87,2.33,2.73,2.73,0,0,1-2.16,1,6.91,6.91,0,0,1-2.21-.74q-1.63-.74-2.52-1.1a5.21,5.21,0,0,0-2-.36,2.94,2.94,0,0,0-1.81.54,1.83,1.83,0,0,0-.72,1.56q0,1.1,2.23,2.09t4.72,2a13.13,13.13,0,0,1,4.25,2.78,6.29,6.29,0,0,1,1.76,4.68,8.11,8.11,0,0,1-1.32,4.54,9,9,0,0,1-3.76,3.17A12.74,12.74,0,0,1,299,72a15.47,15.47,0,0,1-4.64-.77,12.29,12.29,0,0,1-4.11-2.12,3.82,3.82,0,0,1-1.67-2.94,3.66,3.66,0,0,1,.9-2.19,2.79,2.79,0,0,1,2.31-1.16,4.53,4.53,0,0,1,1.77.32,17.9,17.9,0,0,1,1.91,1,12.94,12.94,0,0,0,2,1,6.08,6.08,0,0,0,2.06.31,3.73,3.73,0,0,0,2.29-.52,2,2,0,0,0,.64-1.63q0-1.1-2.15-2t-4.73-2a13,13,0,0,1-4.33-2.84,6.37,6.37,0,0,1-1.75-4.68,8.25,8.25,0,0,1,1.29-4.58A8.65,8.65,0,0,1,294.42,44a11.88,11.88,0,0,1,5.24-1.11,15.25,15.25,0,0,1,4.2.61,9.61,9.61,0,0,1,3.63,1.87A3.78,3.78,0,0,1,309,48.3Zm5.13,19.17V50.09h-1.67a3.18,3.18,0,0,1-2.36-.91,3.29,3.29,0,0,1-.9-2.42,3.22,3.22,0,0,1,.94-2.35,3.14,3.14,0,0,1,2.33-.95h1.67V39a4.42,4.42,0,0,1,1-3,3.41,3.41,0,0,1,2.69-1.16,3.52,3.52,0,0,1,3.26,2,4.82,4.82,0,0,1,.48,2.19v4.5h2.12a4,4,0,0,1,2.55.81,3,3,0,0,1,1,2.5,3.05,3.05,0,0,1-1,2.51,3.92,3.92,0,0,1-2.57.82h-2.12V67.47a4.82,4.82,0,0,1-.48,2.19,3.56,3.56,0,0,1-1.34,1.48,3.62,3.62,0,0,1-1.92.52,3.41,3.41,0,0,1-2.69-1.16A4.42,4.42,0,0,1,314.1,67.47Zm13.41,0V46.94a3.5,3.5,0,0,1,1.15-2.79,4,4,0,0,1,2.67-1q3.64,0,3.64,3.15h.1a8.29,8.29,0,0,1,2.33-2.41,5.39,5.39,0,0,1,2.91-.74,3.53,3.53,0,0,1,2.53,1,4,4,0,0,1,1.09,3,2.37,2.37,0,0,1-.57,1.71,4.57,4.57,0,0,1-1.56,1l-2.33.95a13.87,13.87,0,0,0-3.36,2,3.81,3.81,0,0,0-1.14,3V67.47a4.82,4.82,0,0,1-.48,2.19,3.56,3.56,0,0,1-1.34,1.48,3.62,3.62,0,0,1-1.92.52,3.41,3.41,0,0,1-2.69-1.16A4.42,4.42,0,0,1,327.5,67.47Zm29.62-24.62A12.31,12.31,0,0,1,362.49,44a13.08,13.08,0,0,1,4.27,3.24,15,15,0,0,1,2.76,4.66,15.69,15.69,0,0,1,1,5.53,16.08,16.08,0,0,1-1,5.59,14.64,14.64,0,0,1-2.71,4.63,12.57,12.57,0,0,1-4.25,3.15A12.82,12.82,0,0,1,357.12,72a12.58,12.58,0,0,1-6.93-2,13.21,13.21,0,0,1-4.74-5.3,16,16,0,0,1-1.68-7.28,15.72,15.72,0,0,1,1-5.46,15.1,15.1,0,0,1,2.77-4.72A12.94,12.94,0,0,1,351.78,44,12.28,12.28,0,0,1,357.12,42.85Zm0,6.91a4.92,4.92,0,0,0-3.22,1.11,6.63,6.63,0,0,0-2,2.9,10.61,10.61,0,0,0-.66,3.69,10.2,10.2,0,0,0,.67,3.67,6.66,6.66,0,0,0,2,2.84,5.36,5.36,0,0,0,6.48,0,6.66,6.66,0,0,0,2-2.84,10.2,10.2,0,0,0,.67-3.67,10.51,10.51,0,0,0-.66-3.67,6.78,6.78,0,0,0-2-2.9A4.9,4.9,0,0,0,357.12,49.76ZM392.4,48.3a3.49,3.49,0,0,1-.87,2.33,2.73,2.73,0,0,1-2.16,1,6.91,6.91,0,0,1-2.21-.74q-1.63-.74-2.52-1.1a5.21,5.21,0,0,0-2-.36,2.94,2.94,0,0,0-1.81.54,1.83,1.83,0,0,0-.72,1.56q0,1.1,2.23,2.09t4.72,2a13.13,13.13,0,0,1,4.25,2.78,6.29,6.29,0,0,1,1.76,4.68,8.11,8.11,0,0,1-1.32,4.54A9,9,0,0,1,388,70.84,12.74,12.74,0,0,1,382.46,72a15.47,15.47,0,0,1-4.64-.77,12.29,12.29,0,0,1-4.11-2.12A3.82,3.82,0,0,1,372,66.16a3.66,3.66,0,0,1,.9-2.19,2.79,2.79,0,0,1,2.31-1.16,4.53,4.53,0,0,1,1.77.32,17.91,17.91,0,0,1,1.91,1,12.94,12.94,0,0,0,2,1,6.08,6.08,0,0,0,2.06.31,3.73,3.73,0,0,0,2.29-.52,2,2,0,0,0,.64-1.63q0-1.1-2.15-2t-4.73-2a13,13,0,0,1-4.33-2.84A6.37,6.37,0,0,1,373,51.65a8.25,8.25,0,0,1,1.29-4.58A8.65,8.65,0,0,1,377.86,44a11.88,11.88,0,0,1,5.24-1.11,15.25,15.25,0,0,1,4.2.61,9.61,9.61,0,0,1,3.63,1.87A3.78,3.78,0,0,1,392.4,48.3ZM435.1,35.2V67.47a4.82,4.82,0,0,1-.48,2.19,3.56,3.56,0,0,1-1.34,1.48,3.62,3.62,0,0,1-1.92.52,3.54,3.54,0,0,1-3.72-3.15,6.86,6.86,0,0,1-2.92,2.57,9,9,0,0,1-3.93.91,10.69,10.69,0,0,1-6.39-2A13.29,13.29,0,0,1,410,64.65a16.13,16.13,0,0,1-1.53-6.86,19.46,19.46,0,0,1,1.37-7.27A12.9,12.9,0,0,1,414,45a10.37,10.37,0,0,1,6.54-2.12A11.26,11.26,0,0,1,425.46,44a10.35,10.35,0,0,1,2.18,1.46V35.2a4.42,4.42,0,0,1,1-3A3.41,3.41,0,0,1,431.36,31a3.52,3.52,0,0,1,3.26,2A4.82,4.82,0,0,1,435.1,35.2Zm-7.46,22A9,9,0,0,0,426.11,52a5,5,0,0,0-4.34-2.2,4.68,4.68,0,0,0-3.15,1.14,6.93,6.93,0,0,0-2,2.9,10.4,10.4,0,0,0-.66,3.66,10.13,10.13,0,0,0,.38,2.69,8.67,8.67,0,0,0,1.11,2.5,5.6,5.6,0,0,0,1.83,1.77,4.74,4.74,0,0,0,2.47.65A4.8,4.8,0,0,0,425,63.91a6.83,6.83,0,0,0,2-3A11.13,11.13,0,0,0,427.64,57.21Zm33.61,2.74H445.37A5.71,5.71,0,0,0,447.69,64a7.92,7.92,0,0,0,4.7,1.38,7,7,0,0,0,2.88-.54q1.19-.54,3-1.52a6.42,6.42,0,0,1,2.59-1,2.66,2.66,0,0,1,1.48.47A3.59,3.59,0,0,1,463.48,64a3.07,3.07,0,0,1,.43,1.56,3.44,3.44,0,0,1-1.07,2.33A10.19,10.19,0,0,1,460,70a18.63,18.63,0,0,1-4,1.46,17.77,17.77,0,0,1-4.24.55,14.14,14.14,0,0,1-7.28-1.88,12.83,12.83,0,0,1-5-5.2,15.76,15.76,0,0,1-1.75-7.46,15.84,15.84,0,0,1,3.78-10.21A12.63,12.63,0,0,1,445.78,44a12.73,12.73,0,0,1,10.75.05,13.23,13.23,0,0,1,4.26,3.21,15.54,15.54,0,0,1,2.73,4.44,12.88,12.88,0,0,1,1,4.85Q464.51,59.95,461.25,59.95Zm-16.06-5h11.86a6.87,6.87,0,0,0-1.87-4.17,5.47,5.47,0,0,0-4.07-1.59,5.39,5.39,0,0,0-4,1.61A7,7,0,0,0,445.19,54.9Zm40.72-6.6a3.49,3.49,0,0,1-.87,2.33,2.73,2.73,0,0,1-2.16,1,6.91,6.91,0,0,1-2.21-.74q-1.63-.74-2.52-1.1a5.21,5.21,0,0,0-2-.36,2.94,2.94,0,0,0-1.81.54,1.83,1.83,0,0,0-.72,1.56q0,1.1,2.23,2.09t4.72,2a13.13,13.13,0,0,1,4.25,2.78,6.29,6.29,0,0,1,1.76,4.68,8.11,8.11,0,0,1-1.32,4.54,9,9,0,0,1-3.76,3.17A12.74,12.74,0,0,1,476,72a15.47,15.47,0,0,1-4.64-.77,12.29,12.29,0,0,1-4.11-2.12,3.82,3.82,0,0,1-1.67-2.94,3.66,3.66,0,0,1,.9-2.19,2.79,2.79,0,0,1,2.31-1.16,4.53,4.53,0,0,1,1.77.32,17.91,17.91,0,0,1,1.91,1,12.94,12.94,0,0,0,2,1,6.08,6.08,0,0,0,2.06.31,3.73,3.73,0,0,0,2.29-.52,2,2,0,0,0,.64-1.63q0-1.1-2.15-2t-4.73-2a13,13,0,0,1-4.33-2.84,6.37,6.37,0,0,1-1.75-4.68,8.25,8.25,0,0,1,1.29-4.58A8.65,8.65,0,0,1,471.37,44a11.88,11.88,0,0,1,5.24-1.11,15.25,15.25,0,0,1,4.2.61,9.61,9.61,0,0,1,3.63,1.87A3.78,3.78,0,0,1,485.91,48.3ZM491,67.47V50.09h-1.67a3.18,3.18,0,0,1-2.36-.91,3.29,3.29,0,0,1-.9-2.42,3.22,3.22,0,0,1,.94-2.35,3.14,3.14,0,0,1,2.33-.95H491V39a4.42,4.42,0,0,1,1-3,3.41,3.41,0,0,1,2.69-1.16,3.52,3.52,0,0,1,3.26,2,4.82,4.82,0,0,1,.48,2.19v4.5h2.12a4,4,0,0,1,2.55.81,3,3,0,0,1,1,2.5,3.05,3.05,0,0,1-1,2.51,3.92,3.92,0,0,1-2.57.82h-2.12V67.47a4.82,4.82,0,0,1-.48,2.19,3.56,3.56,0,0,1-1.34,1.48,3.62,3.62,0,0,1-1.92.52,3.41,3.41,0,0,1-2.69-1.16A4.42,4.42,0,0,1,491,67.47ZM530,48.1V66.75a8.8,8.8,0,0,1-.61,3.56q-.61,1.36-3,1.36a3.2,3.2,0,0,1-2.34-.81,5,5,0,0,1-1.23-2.39A9,9,0,0,1,515.78,72a11.15,11.15,0,0,1-6.27-1.87,12.66,12.66,0,0,1-4.44-5.18,17,17,0,0,1-1.61-7.49,16.59,16.59,0,0,1,1.64-7.38,13.34,13.34,0,0,1,4.48-5.3,10.77,10.77,0,0,1,6.2-1.93,9.47,9.47,0,0,1,4,.87,7.67,7.67,0,0,1,3.11,2.58A3.37,3.37,0,0,1,524.07,44a3.55,3.55,0,0,1,2.39-.88q2.38,0,3,1.37A8.89,8.89,0,0,1,530,48.1Zm-19.12,9.37a10.2,10.2,0,0,0,.67,3.67,6.66,6.66,0,0,0,2,2.84,4.92,4.92,0,0,0,3.22,1.09,4.82,4.82,0,0,0,4.25-2.29,9.39,9.39,0,0,0,1.52-5.31,10.69,10.69,0,0,0-.64-3.67,6.73,6.73,0,0,0-2-2.9,4.71,4.71,0,0,0-3.15-1.13,4.92,4.92,0,0,0-3.22,1.11,6.63,6.63,0,0,0-2,2.9A10.61,10.61,0,0,0,510.93,57.46Zm44.77-9.85a4.27,4.27,0,0,1-.81,2.46,2.41,2.41,0,0,1-2,1.18,8.69,8.69,0,0,1-2.69-.74,9,9,0,0,0-3.2-.74,5.49,5.49,0,0,0-3.43,1.09,6.58,6.58,0,0,0-2.14,2.85,10,10,0,0,0-.71,3.76,8.69,8.69,0,0,0,1.69,5.31,5.4,5.4,0,0,0,4.58,2.29,5.53,5.53,0,0,0,1.69-.29q.91-.29,2.21-.78a7,7,0,0,1,1.63-.49,3,3,0,0,1,1.59.45,3.4,3.4,0,0,1,1.18,1.2,3.21,3.21,0,0,1,.44,1.65,3.53,3.53,0,0,1-1.61,2.94,10.63,10.63,0,0,1-3.78,1.71,16,16,0,0,1-3.74.54,12.58,12.58,0,0,1-6.93-2,13.21,13.21,0,0,1-4.74-5.3,16,16,0,0,1-1.68-7.28,15.72,15.72,0,0,1,1-5.46A15.1,15.1,0,0,1,537,47.28,12.94,12.94,0,0,1,541.23,44a12.28,12.28,0,0,1,5.34-1.18,18.35,18.35,0,0,1,3.88.47,10.38,10.38,0,0,1,3.71,1.54A3.21,3.21,0,0,1,555.7,47.61Zm28.08.49V66.75a8.8,8.8,0,0,1-.61,3.56q-.61,1.36-3,1.36a3.2,3.2,0,0,1-2.34-.81,5,5,0,0,1-1.23-2.39A9,9,0,0,1,569.51,72a11.15,11.15,0,0,1-6.27-1.87,12.66,12.66,0,0,1-4.44-5.18,17,17,0,0,1-1.61-7.49,16.59,16.59,0,0,1,1.64-7.38,13.34,13.34,0,0,1,4.48-5.3,10.77,10.77,0,0,1,6.2-1.93,9.47,9.47,0,0,1,4,.87,7.67,7.67,0,0,1,3.11,2.58A3.37,3.37,0,0,1,577.79,44a3.55,3.55,0,0,1,2.39-.88q2.38,0,3,1.37A8.89,8.89,0,0,1,583.77,48.1Zm-19.12,9.37a10.2,10.2,0,0,0,.67,3.67,6.66,6.66,0,0,0,2,2.84,4.92,4.92,0,0,0,3.22,1.09,4.82,4.82,0,0,0,4.25-2.29,9.39,9.39,0,0,0,1.52-5.31,10.69,10.69,0,0,0-.64-3.67,6.73,6.73,0,0,0-2-2.9,4.71,4.71,0,0,0-3.15-1.13,4.92,4.92,0,0,0-3.22,1.11,6.63,6.63,0,0,0-2,2.9A10.61,10.61,0,0,0,564.65,57.46ZM613.52,35.2V67.47a4.82,4.82,0,0,1-.48,2.19,3.56,3.56,0,0,1-1.34,1.48,3.62,3.62,0,0,1-1.92.52,3.54,3.54,0,0,1-3.72-3.15,6.86,6.86,0,0,1-2.92,2.57,9,9,0,0,1-3.93.91,10.69,10.69,0,0,1-6.39-2,13.29,13.29,0,0,1-4.35-5.32,16.13,16.13,0,0,1-1.53-6.86,19.46,19.46,0,0,1,1.37-7.27A12.9,12.9,0,0,1,592.41,45a10.37,10.37,0,0,1,6.54-2.12A11.26,11.26,0,0,1,603.88,44a10.35,10.35,0,0,1,2.18,1.46V35.2a4.42,4.42,0,0,1,1-3A3.41,3.41,0,0,1,609.77,31,3.52,3.52,0,0,1,613,33,4.82,4.82,0,0,1,613.52,35.2Zm-7.46,22A9,9,0,0,0,604.52,52a5,5,0,0,0-4.34-2.2A4.68,4.68,0,0,0,597,50.9a6.93,6.93,0,0,0-2,2.9,10.4,10.4,0,0,0-.66,3.66,10.13,10.13,0,0,0,.38,2.69,8.67,8.67,0,0,0,1.11,2.5,5.6,5.6,0,0,0,1.83,1.77,4.74,4.74,0,0,0,2.47.65,4.8,4.8,0,0,0,3.24-1.15,6.83,6.83,0,0,0,2-3A11.13,11.13,0,0,0,606.06,57.21Zm24-14.36A12.31,12.31,0,0,1,635.41,44a13.08,13.08,0,0,1,4.27,3.24,15,15,0,0,1,2.76,4.66,15.69,15.69,0,0,1,1,5.53,16.08,16.08,0,0,1-1,5.59,14.64,14.64,0,0,1-2.71,4.63,12.57,12.57,0,0,1-4.25,3.15A12.82,12.82,0,0,1,630,72a12.58,12.58,0,0,1-6.93-2,13.21,13.21,0,0,1-4.74-5.3,16,16,0,0,1-1.68-7.28,15.72,15.72,0,0,1,1-5.46,15.1,15.1,0,0,1,2.77-4.72A12.94,12.94,0,0,1,624.7,44,12.28,12.28,0,0,1,630,42.85Zm0,6.91a4.92,4.92,0,0,0-3.22,1.11,6.63,6.63,0,0,0-2,2.9,10.61,10.61,0,0,0-.66,3.69,10.2,10.2,0,0,0,.67,3.67,6.66,6.66,0,0,0,2,2.84,5.36,5.36,0,0,0,6.48,0,6.66,6.66,0,0,0,2-2.84,10.2,10.2,0,0,0,.67-3.67,10.51,10.51,0,0,0-.66-3.67,6.78,6.78,0,0,0-2-2.9A4.9,4.9,0,0,0,630,49.76Zm35.28-1.46a3.49,3.49,0,0,1-.87,2.33,2.73,2.73,0,0,1-2.16,1,6.91,6.91,0,0,1-2.21-.74q-1.63-.74-2.52-1.1a5.21,5.21,0,0,0-2-.36,2.94,2.94,0,0,0-1.81.54,1.83,1.83,0,0,0-.72,1.56q0,1.1,2.23,2.09t4.72,2a13.13,13.13,0,0,1,4.25,2.78A6.29,6.29,0,0,1,666,63.12a8.11,8.11,0,0,1-1.32,4.54,9,9,0,0,1-3.76,3.17A12.74,12.74,0,0,1,655.38,72a15.47,15.47,0,0,1-4.64-.77,12.29,12.29,0,0,1-4.11-2.12A3.82,3.82,0,0,1,645,66.16a3.66,3.66,0,0,1,.9-2.19,2.79,2.79,0,0,1,2.31-1.16,4.53,4.53,0,0,1,1.77.32,17.9,17.9,0,0,1,1.91,1,12.94,12.94,0,0,0,2,1,6.08,6.08,0,0,0,2.06.31,3.73,3.73,0,0,0,2.29-.52,2,2,0,0,0,.65-1.63q0-1.1-2.15-2t-4.73-2a13,13,0,0,1-4.33-2.84,6.37,6.37,0,0,1-1.75-4.68,8.25,8.25,0,0,1,1.29-4.58A8.65,8.65,0,0,1,650.77,44,11.88,11.88,0,0,1,656,42.85a15.25,15.25,0,0,1,4.2.61,9.61,9.61,0,0,1,3.63,1.87A3.78,3.78,0,0,1,665.32,48.3Z" transform="translate(0 -0.83)" style="fill:#a3c43a"/><g id="Group"><path id="Fill-1" d="M32.6,23.36a.32.32,0,0,0-.16,0,14,14,0,0,0-.91-1.63,11.45,11.45,0,0,1,3-.61,8.35,8.35,0,0,1-1.93,2.24m.5,6.79c.51,6.62-1.46,14.69-8.94,16.22A22.1,22.1,0,0,1,12.62,45.1a12.8,12.8,0,0,1-7.39-6.41,6.56,6.56,0,0,0,6.36,1.74,5.42,5.42,0,0,0,3.7-5.07c.51-5.91-1.67-14,5.37-16.82A7.71,7.71,0,0,1,25,18.08v0a.37.37,0,0,0,.48.09,8.32,8.32,0,0,1,3.81,2.18c2.6,2.56,3.54,6.25,3.82,9.79m-28,7.32L5,37.5C3.2,36.14.13,33.38,1.8,31.43A1.34,1.34,0,0,1,3,30.81a.41.41,0,0,0,.61.33,5.4,5.4,0,0,1,1.29,2.68,15.57,15.57,0,0,1,.13,3.66m2-8.42c.89.86.85,2.38.79,3.51-.11,1.87-.55,3.8-2,5,.25-2,.2-4.5-.84-6.18a3.27,3.27,0,0,0-1.07-1.06c.45-1.36,1.79-2.62,3.17-1.3M31.19,17.6a9.39,9.39,0,0,1-.32,3.2,11.22,11.22,0,0,0-1.47-1.55l1.8-1.65m-5.69-.31s-6.05-1.38-9.06,3.3a8.78,8.78,0,0,0-1,1.6c-1.6,3.41-1.12,7.32-1.06,11,0,2.24,0,4.69-2.17,5.95s-4.43.51-6.18-.92c2.45-1.61,3.42-5.92,2.36-8.56-1.16-2.91-4.55-2.14-5.26.4a2,2,0,0,0-1.62.31c-2.92,2,.22,5.64,2.66,7.18a.28.28,0,0,0,0,.09c1.41,5.89,7.24,8.54,12.78,9.48a9.6,9.6,0,0,1-.22,3.34c-.08.37.47.66.65.27a5.53,5.53,0,0,0,.25-3.51c.52.08,1,.14,1.54.19a21.27,21.27,0,0,0,2.13.1,3.32,3.32,0,0,1,.22,2,4.81,4.81,0,0,1-1,1.82c-.21.29.19.58.45.45,1.46-.71,1.72-2.88,1-4.26a12,12,0,0,0,6.54-2A13.2,13.2,0,0,0,33.4,38.1a23,23,0,0,0-.57-13.85,3.19,3.19,0,0,0,1-.89,19.7,19.7,0,0,0,1.93-2.49.43.43,0,0,0-.37-.65,12.17,12.17,0,0,0-3.56.5,9.79,9.79,0,0,0,.14-4.13.43.43,0,0,0-.71-.19c-.78.81-1.58,1.6-2.37,2.4a8.73,8.73,0,0,0-3.35-1.52" transform="translate(0 -0.83)" style="fill:#00a6e2"/><path id="Fill-3" d="M24.7,38.45a5.39,5.39,0,0,1-2.26,3.16,7.69,7.69,0,0,1-5.81,1.15,3.41,3.41,0,0,0,1.78-2c.78-2,.46-7,4.09-6.18a3.29,3.29,0,0,1,2.19,3.85m.68-2.11a3.58,3.58,0,0,0-5-2.21,4.71,4.71,0,0,0-2.1,2.69c-.59,1.79-.15,5.46-3,5.27a.34.34,0,0,0-.34.2h0c-.27-.1-.45.34-.2.47a8.21,8.21,0,0,0,7.95-.33c2-1.25,3.56-3.68,2.71-6.08" transform="translate(0 -0.83)" style="fill:#00a6e2"/><path id="Fill-5" d="M22.13,24.2c-2,.81-2,3.28-.83,4.79.19.26.74.12.58-.25-.46-1.09-.87-2.64.29-3.45,1.48-1,2.44,1,2.54,2.23,0,.61,1,.63,1,0-.07-1.77-1.47-4.16-3.54-3.32" transform="translate(0 -0.83)" style="fill:#00a6e2"/><path id="Fill-7" d="M63.66,58.66C62.12,53,57.49,48.51,51.35,48.82S41.68,54.08,41,59.77l1.37-.37c-5.91-10.87-23.05-12.67-31.41-3.65C7,59.94,5.48,66.36,9.66,70.93s10.46,3.82,14.79,0a.74.74,0,0,0,0-1C14,61.28-8.64,76.34,3.47,87.84,12.84,96.74,33.89,89.07,36,76.6c.15-.92-1.18-1.33-1.42-.39-6.84,27.15,43.07,29.26,37.65,1.66l-1.42.39c1.66,5.95,5.52,13.59,12.72,13.5,6.93-.08,12.38-7.8,14.64-13.61,3.57-9.15-3.33-17.65-13-16.3-4.46.62-7.75,3.56-8.33,8.09-.08.62.67.83,1.11.64,6-2.59,6.47-8.83,2-13.29-5.26-5.25-12.76-4.42-17.45,1-.62.72.42,1.76,1,1,4-4.66,10.11-5.71,14.89-1.48,4.18,3.7,4.22,9.08-1.23,11.42l1.11.64c1.23-9.54,15.92-8.23,18.93-.56,2.41,6.13-2.53,13.68-6.8,17.66-8.42,7.85-15.83-.76-18.18-9.17a.74.74,0,0,0-1.42.39C75.7,103.37,29.69,101.49,36,76.6l-1.42-.39c-1.22,7.36-8.63,11.7-15.37,13.16s-16.51.26-17.44-8.14c-1-8.92,11.36-14,18.61-11.85.39.11,2.14.55,2.22,1,.18.89-2.9,1.91-3.37,2a8.45,8.45,0,0,1-7.94-1.93c-4.63-4.27-2.44-10.78,1.61-14.56,8-7.41,23-5.35,28.2,4.25.39.71,1.29.29,1.37-.37,1.55-12.31,16.74-12,19.8-.72a.74.74,0,0,0,1.42-.39" transform="translate(0 -0.83)" style="fill:#00a6e2"/><path id="Fill-9" d="M145,26.49c-5.69-2-11.91,1.07-12.91,7.29-.78,4.87,2.12,8.51,6.24,10.53,7.94,3.89,21.82,4.68,25.36-5.46h-1.42c1.49,4,5,7.05,9.2,4.38,2.92-1.84,4.53-5.84,1.59-8.39l-.72,1.23c4,1.21,8.57,1.22,11.35-2.35,2.25-2.88,2.5-7,1.47-10.41A10.21,10.21,0,0,0,177.56,16c-5.73-1.09-11.16,3-15.13,6.6l1.23.32c-.56-3.49-2.8-7.47-6.75-7.75s-5.72,3.73-6.17,7.14l1.37-.37a3.93,3.93,0,0,0-5-1.36c-2.67,1.14-3.26,4-3,6.66.09.94,1.56.95,1.47,0-.17-1.82-.12-3.87,1.59-5a2.6,2.6,0,0,1,3.72.46.74.74,0,0,0,1.37-.37c.4-3,2-6.65,5.67-5.43,2.73.91,3.94,3.84,4.36,6.43.09.58.86.66,1.23.33,5.74-5.21,16.94-10.59,20.25.11a10.47,10.47,0,0,1-.85,8.61c-2.3,3.53-6.53,3.44-10.15,2.33a.74.74,0,0,0-.72,1.23c4,3.47-5,11.45-8.33,2.57a.74.74,0,0,0-1.42,0c-2.82,8.07-13.3,7.9-20.07,5.79-2.76-.86-6-2.22-7.61-4.79-4.28-6.92,3.11-14,10-11.55.9.31,1.28-1.11.39-1.42" transform="translate(0 -0.83)" style="fill:#00a6e2"/><path id="Fill-11" d="M74.52,54.22c5.25-8.68,11.87-16.59,20.71-21.77C108,25,123,24.7,137.19,27.58c.93.19,1.32-1.23.39-1.42-14.26-2.89-29.37-2.69-42.34,4.6-9.41,5.28-16.46,13.59-22,22.73a.74.74,0,0,0,1.27.74" transform="translate(0 -0.83)" style="fill:#00a6e2"/><path id="Fill-13" d="M68.12,54.86c0-5.86,4.82-11,8.74-14.82a92.78,92.78,0,0,1,16.8-12.73,46.89,46.89,0,0,1,20-7.05c10.62-1.1,21.21,1,31.57,3.11.92.19,1.32-1.23.39-1.42-11.17-2.29-22.62-4.51-34-2.92-7.21,1-13.25,3.69-19.39,7.46A90.33,90.33,0,0,0,74.52,40.3c-3.74,3.87-7.91,8.86-7.87,14.56a.74.74,0,0,0,1.47,0" transform="translate(0 -0.83)" style="fill:#00a6e2"/><path id="Fill-15" d="M60,51.23a78.4,78.4,0,0,1,39.35-33.1c15.65-5.85,36.38-8.61,51.17.65.81.5,1.55-.77.74-1.27C136.14,8,115,10.72,99,16.71A80,80,0,0,0,58.74,50.49a.74.74,0,0,0,1.27.74" transform="translate(0 -0.83)" style="fill:#00a6e2"/><g id="Group-19"><g style="mask:url(#mask)"><path id="Fill-17" d="M54.5,49.23c7.35-15.49,21.18-27,36.42-34.32,14.89-7.13,32.67-11,49-7.29A40,40,0,0,1,161.59,20.2c.62.72,1.66-.33,1-1-10.58-12.2-27.25-15.57-42.7-14A91,91,0,0,0,71.59,25.47a68.09,68.09,0,0,0-18.37,23c-.4.85.86,1.6,1.27.74" transform="translate(0 -0.83)" style="fill:#00a6e2"/></g></g><path id="Fill-20" d="M78.58,56.25C90.22,38.41,113,27.07,134.2,31.44c.92.19,1.32-1.23.39-1.42-21.87-4.5-45.26,7.06-57.29,25.49-.52.8.75,1.54,1.27.74" transform="translate(0 -0.83)" style="fill:#00a6e2"/><path id="Fill-22" d="M60.76,47.94c1.46,3,3.27,6,6.28,7.59a.74.74,0,0,0,1.11-.64c0-4-3-6.91-4.17-10.53l-1.08.83c1.75,1,3.09,2.46,4.88,3.38a.75.75,0,0,0,1.11-.64c.17-2.62-2.39-4.94-1.54-7.51L66,40.6c.76,1.06,2.77,5.2,4.61,4.66,2.83-.84-.58-7.17-.08-8.6l-1.35.18c1.54,2,2.3,4.38,4.59,5.71a.75.75,0,0,0,1.08-.44c.94-2.71-1.46-4.83-.76-7.52l-1.23.33c1.1,1.34,1.82,2.87,3,4.13A.74.74,0,0,0,77,38.9c1.48-2.46-1.35-4.85.18-7.34H75.94c.93,1.8,1.29,3.58,2.75,5a.74.74,0,0,0,1.16-.15c1.38-2.58-.53-5.21.44-7.89l-1.35.18c.87,1.87.93,3.89,2.07,5.64a.74.74,0,0,0,1.16.15c2.11-2.53-.3-5.65,1.23-8.43H82.12c.75,1.33.9,6.56,3.3,6.27s1-6.46,1.91-8H86.06c1.07,1.94,1.47,3.93,2.94,5.6a.74.74,0,0,0,1.23-.33c1-2.63-.67-5.93,1.9-7.84l-1.08-.44c.75,1.91.47,3.85,1.58,5.63a.75.75,0,0,0,1.27,0c1.67-2.2-.59-5.08,1.56-7.19l-1.23-.33c.63,1.84.66,3.7,1.58,5.44A.74.74,0,0,0,97,25.1c2.07-2-.1-5.34,2.05-7.15l-1.23-.33c.19.68.18,8.42,3.22,6,1-.76.48-2.69.63-3.69.29-1.92.94-2.84,1.64-.81.37,1.06,0,1.63.78,2.63.25.34.83.56,1.16.15,1.07-1.36.49-3.73,1.48-4.87,1.61-1.86,1.18.95,1.19,2a5.26,5.26,0,0,0,.48,2.38.74.74,0,0,0,1.16.15,6.69,6.69,0,0,0,1.25-3.57,10.93,10.93,0,0,1,.32-1.93q2.75-1.72,2.33.34c.22.9-.19,2.16-.1,3.13,0,.48.62,1,1.11.64,1.14-.88,1.46-2.11,1.94-3.42.21-.57,1.27-3.91,2.56-3A17.48,17.48,0,0,0,118,18c0,.95,1.52,1,1.47,0-.08-1.76.73-3.21,1.09-4.88a.75.75,0,0,0-.51-.91c-5.1-1.26-3.64,4.55-6.38,6.66l1.11.64c-.19-2.06,1.16-6.3-2.15-6.37-4-.07-2.52,5.35-4.17,7.35l1.16.15c-.75-1.58,1.28-7.08-2.17-6.55-3.06.47-1.9,5-3.3,6.78l1.16.15c-.69-.94-.57-7.82-3.86-4.73-1,.9-1.2,2.71-1.31,3.94-.13,1.45-.3,2-.71.13-.23-1,0-2.06-.24-3.1A.75.75,0,0,0,98,16.91c-2.44,2,0,5.16-2.06,7.15l1.16.15c-.86-1.63-.85-3.39-1.43-5.09a.74.74,0,0,0-1.23-.33c-2.42,2.36,0,5.17-1.79,7.49H93.9c-1-1.59-.76-3.55-1.43-5.28-.15-.39-.66-.75-1.08-.44C88,23,90.11,25.88,88.81,29.28L90,29c-1.31-1.49-1.76-3.59-2.71-5.3a.74.74,0,0,0-1.27,0c-1.12,1.92-.24,4.09-.84,6.07-.41,1.36-.69-.87-.92-1.69a11.9,11.9,0,0,0-.9-2.68.74.74,0,0,0-1.27,0c-1.36,2.47.67,6.12-1,8.13l1.16.15c-1.13-1.73-1.21-3.79-2.07-5.64-.29-.63-1.15-.36-1.35.18-.86,2.37.86,5.39-.29,7.54l1.16-.15c-1.31-1.3-1.69-3.14-2.52-4.74a.74.74,0,0,0-1.27,0c-1.53,2.49,1.11,5.19-.18,7.34L76.92,38c-1.18-1.25-1.92-2.81-3-4.13a.74.74,0,0,0-1.23.33c-.69,2.66,1.64,5,.76,7.52l1.08-.44c-2-1.15-2.74-3.45-4.06-5.18a.75.75,0,0,0-1.35.18c-.74,2.13.13,3.05.67,5.06,1.17,4.3-1.54-.1-2.51-1.47a.75.75,0,0,0-1.35.18c-1,3,1.67,5,1.48,7.91l1.11-.64c-1.78-.91-3.14-2.4-4.88-3.38a.74.74,0,0,0-1.08.83c1.11,3.42,4.13,6.43,4.11,10.14l1.11-.64C65,52.75,63.37,50,62,47.2c-.41-.85-1.68-.11-1.27.74" transform="translate(0 -0.83)" style="fill:#00a6e2"/><path id="Fill-24" d="M118.25,18a1.89,1.89,0,0,0,.75,1.26.74.74,0,0,0,1,0c1.39-1.69,2.07-3.9,4-5.16l-1.11-.64a7.15,7.15,0,0,0,.41,3.58.75.75,0,0,0,1.35.18,48.59,48.59,0,0,1,3.07-4.56l-1.16-.15c.72,1.33-2,6.24,1,6.12,1.16,0,1.72-1.38,2.21-2.19s.81-1.59,1.28-2.34c1.45-2.28.42-.33-.22,1.43-.45,1.24-1.51,2.56-.2,3.72.89.79,1.67.51,2.44-.3a10.27,10.27,0,0,0,1.23-2.31c.39-.7,1-2.64.9-1.51-.14,1.59-1,3.07-.66,4.7a.74.74,0,0,0,.91.52c2.34-.8,2.1-3.21,3.61-4.77,2.64-2.75,1,.85.74,1.91a5,5,0,0,0-.18,2.9.75.75,0,0,0,1.08.44c2.4-1.23,3-5,5.63-5.57l-.91-.91c-.5,2.22-2.29,3.51-2.46,5.84a.74.74,0,0,0,.93.71c2-.65,2.46-2.48,4.11-3.65l-1.11-.64-.65,2.83c-.41.85.85,1.6,1.27.75a7.11,7.11,0,0,0,.85-3.57.74.74,0,0,0-1.11-.64c-1.26.89-2.39,3.06-3.76,3.5l.93.71c.15-2,2-3.48,2.41-5.45a.75.75,0,0,0-.91-.91c-3.14.68-3.33,4.37-6,5.72l1.08.44c-.55-1.93,2.61-5.49.62-7-1.69-1.32-3.35,1-4,2.18-.47.84-.88,1.76-1.31,2.63-1,2.05-.26.42-.1-.4s.89-2.46.64-3.4c-.39-1.44-1.25-1.12-2.23-.3s-1.15,2.51-2,3.2c-1.52,1.22.22-1.72.38-2.68.22-1.24.11-3.28-1.58-2.79s-2.15,3.87-3.31,5.06c-1.31,1.35-.16-1.44-.07-2.52a3.64,3.64,0,0,0-.2-2.18.74.74,0,0,0-1.16-.15,51.81,51.81,0,0,0-3.3,4.86l1.34.18a5.12,5.12,0,0,1-.35-3.19.74.74,0,0,0-1.11-.64c-1.08.72-4,3.31-3.6,4.77a.74.74,0,0,0-1.42.39" transform="translate(0 -0.83)" style="fill:#00a6e2"/><path id="Fill-26" d="M75.51,51.12a2.85,2.85,0,0,0,.77,2.07,18,18,0,0,0,1.86,2.22c.67.68,1.71-.37,1-1a16.69,16.69,0,0,1-1.42-1.63,8.92,8.92,0,0,1-.58-.84c-.07-.11-.12-.23-.19-.33s0-.34-.07,0c.19-.93-1.23-1.32-1.42-.39" transform="translate(0 -0.83)" style="fill:#00a6e2"/><path id="Fill-28" d="M76.26,49.58c1,1.2,1.91,2.46,3,3.57.67.68,1.71-.37,1-1-1.09-1.11-2-2.37-3-3.57-.61-.73-1.64.32-1,1" transform="translate(0 -0.83)" style="fill:#00a6e2"/><path id="Fill-30" d="M77.08,46.79c1.08,1.45,2,3,3,4.51.5.8,1.78.06,1.27-.75-1-1.53-1.93-3.06-3-4.51-.56-.75-1.84,0-1.27.74" transform="translate(0 -0.83)" style="fill:#00a6e2"/><path id="Fill-32" d="M79.14,44.53c1.38,1.89,1.77,4.32,3.5,6,.69.65,1.73-.39,1-1-1.62-1.55-2-3.9-3.27-5.68-.56-.76-1.83,0-1.27.74" transform="translate(0 -0.83)" style="fill:#00a6e2"/><path id="Fill-34" d="M81.32,43.23A24.14,24.14,0,0,0,84,49c.56.75,1.84,0,1.27-.75a22.61,22.61,0,0,1-2.56-5.46c-.34-.87-1.77-.49-1.42.39" transform="translate(0 -0.83)" style="fill:#00a6e2"/><path id="Fill-36" d="M83,40.78A15.32,15.32,0,0,0,85.64,46c.61.73,1.65-.32,1-1a13.4,13.4,0,0,1-2.26-4.56c-.3-.9-1.72-.51-1.42.39" transform="translate(0 -0.83)" style="fill:#00a6e2"/><path id="Fill-38" d="M85.07,38.33A25.13,25.13,0,0,0,88,43.77c.55.76,1.83,0,1.27-.75a23.61,23.61,0,0,1-2.75-5.09c-.35-.87-1.78-.49-1.42.39" transform="translate(0 -0.83)" style="fill:#00a6e2"/><path id="Fill-40" d="M88.14,36.62a44,44,0,0,0,2.26,5.26.74.74,0,0,0,1.27-.75,44.09,44.09,0,0,1-2.26-5.26c-.38-.87-1.64-.12-1.27.74" transform="translate(0 -0.83)" style="fill:#00a6e2"/><path id="Fill-42" d="M91.07,34.37c.58,1.75,1.12,3.51,1.69,5.26.3.9,1.72.51,1.42-.39-.58-1.75-1.12-3.51-1.69-5.26-.3-.9-1.72-.51-1.42.39" transform="translate(0 -0.83)" style="fill:#00a6e2"/><path id="Fill-44" d="M94.07,32.3c.39,1.56.74,3.14,1.13,4.7a.74.74,0,0,0,1.42-.39c-.39-1.56-.74-3.14-1.13-4.7a.74.74,0,0,0-1.42.39" transform="translate(0 -0.83)" style="fill:#00a6e2"/><path id="Fill-46" d="M96.5,30.42c.56,2.13.82,4.37,2.15,6.19.55.76,1.83,0,1.27-.75-1.25-1.72-1.47-3.84-2-5.84a.74.74,0,0,0-1.42.39" transform="translate(0 -0.83)" style="fill:#00a6e2"/><path id="Fill-48" d="M100.63,28.91c.71,2.15.63,4.47,1.51,6.58.36.86,1.78.48,1.42-.39-.88-2.11-.8-4.43-1.51-6.58-.3-.9-1.72-.51-1.42.39" transform="translate(0 -0.83)" style="fill:#00a6e2"/><path id="Fill-50" d="M103.63,27.59c.68,1.88.43,3.91.95,5.83A.74.74,0,0,0,106,33c-.51-1.92-.27-3.94-.94-5.83-.32-.89-1.74-.5-1.42.39" transform="translate(0 -0.83)" style="fill:#00a6e2"/><path id="Fill-52" d="M106.42,26.82a16.78,16.78,0,0,0,.6,6,.74.74,0,0,0,1.42-.39,15.6,15.6,0,0,1-.54-5.63c.08-.95-1.39-.94-1.47,0" transform="translate(0 -0.83)" style="fill:#00a6e2"/><path id="Fill-54" d="M108.69,26.64c.38,1.62.45,3.29.94,4.89.28.9,1.7.52,1.42-.39-.5-1.6-.57-3.27-.94-4.89-.21-.92-1.63-.53-1.42.39" transform="translate(0 -0.83)" style="fill:#00a6e2"/><path id="Fill-56" d="M112.14,26.44a5,5,0,0,1,.32,2.47,11.38,11.38,0,0,0,.17,2.43c.2.93,1.62.54,1.42-.39-.37-1.72.27-3.65-.64-5.25a.74.74,0,0,0-1.27.74" transform="translate(0 -0.83)" style="fill:#00a6e2"/><path id="Fill-58" d="M114,26.25a8.73,8.73,0,0,1,.66,4.14.74.74,0,0,0,1.47,0,10.22,10.22,0,0,0-.86-4.88c-.44-.84-1.71-.1-1.27.74" transform="translate(0 -0.83)" style="fill:#00a6e2"/><path id="Fill-60" d="M116.76,25.69a10.39,10.39,0,0,0,.83,3.56c.46.83,1.73.09,1.27-.74a9.6,9.6,0,0,1-.68-3.21c-.15-.94-1.57-.54-1.42.39" transform="translate(0 -0.83)" style="fill:#00a6e2"/><path id="Fill-62" d="M120.11,24.17a34.67,34.67,0,0,0,.41,4.52c.13.94,1.55.54,1.42-.39a31.62,31.62,0,0,1-.35-4.13.74.74,0,0,0-1.47,0" transform="translate(0 -0.83)" style="fill:#00a6e2"/><path id="Fill-64" d="M122.39,25.5a7.28,7.28,0,0,1,0,2.62c-.17.93,1.25,1.33,1.42.39a9.31,9.31,0,0,0,0-3.4c-.17-.93-1.59-.54-1.42.39" transform="translate(0 -0.83)" style="fill:#00a6e2"/><path id="Fill-66" d="M124.64,25.12a4.91,4.91,0,0,1-.18,2.62c-.33.89,1.09,1.28,1.42.39a6.42,6.42,0,0,0,.18-3.4c-.17-.93-1.59-.54-1.42.39" transform="translate(0 -0.83)" style="fill:#00a6e2"/><path id="Fill-68" d="M126.89,25.47a13,13,0,0,0-.18,4c.13.94,1.55.54,1.42-.39a10.63,10.63,0,0,1,.18-3.18c.15-.93-1.27-1.33-1.42-.39" transform="translate(0 -0.83)" style="fill:#00a6e2"/><path id="Fill-70" d="M129.33,25.3a8.48,8.48,0,0,1,0,2.81c-.14.93,1.28,1.33,1.42.39a10.65,10.65,0,0,0,0-3.59c-.17-.93-1.59-.54-1.42.39" transform="translate(0 -0.83)" style="fill:#00a6e2"/><path id="Fill-72" d="M131.74,25.48A27,27,0,0,1,131.4,29c-.13.93,1.29,1.33,1.42.39a29.9,29.9,0,0,0,.4-4,.74.74,0,0,0-1.47,0" transform="translate(0 -0.83)" style="fill:#00a6e2"/><path id="Fill-74" d="M134,26.23a5,5,0,0,1-.37,2.62c-.34.89,1.09,1.27,1.42.39a6.44,6.44,0,0,0,.37-3.4c-.16-.93-1.58-.54-1.42.39" transform="translate(0 -0.83)" style="fill:#00a6e2"/></g></g><g id="Group-2" data-name="Group"><path id="Fill-1-2" data-name="Fill-1" d="M684.65,53.11a47.89,47.89,0,0,1,6.9,4.74.51.51,0,0,0,.5.1.39.39,0,0,0,.5.17,27.73,27.73,0,0,0,7.21-4.54A65,65,0,0,0,698,60.44a.56.56,0,0,0,.34.59,20.81,20.81,0,0,1,3.77,1.57,18.73,18.73,0,0,1,1.86,1.17c.3.21,1.52,1,1.59,1.3.22.9-3.49,1.45-4.17,1.62-1.21.31-2.42.6-3.63.92a.31.31,0,0,0-.14.08.3.3,0,0,0-.37.21c-.94,2.7-1.59,5.47-2.51,8.18a50.63,50.63,0,0,1-3.63-7.61.47.47,0,0,0-.56-.31.38.38,0,0,0-.54-.31c-1.65.63-3.29,1.31-5,1.86q-.95.31-1.91.57c-.64.18-2.57,1.18-2.24-.3.14-.61,1.27-1.56,1.68-2s.88-1,1.33-1.46c1.19-1.27,2.53-2.39,3.71-3.67a.35.35,0,0,0,.33-.51,63.46,63.46,0,0,1-3.27-9.2" transform="translate(0 -0.83)" style="fill:#00a6e2"/><path id="Fill-3-2" data-name="Fill-3" d="M753.33,25.88a16.39,16.39,0,0,0-1.81-10.68c1.27-1.23,2.92-2.62,3.66-4.07A1.38,1.38,0,0,0,755,9.37c-2.39-2.47-8.27.92-9.54-2.29C745,5.85,744,.37,741.74.86c-.92.2-1.38,1.75-1.73,2.43a31.26,31.26,0,0,0-2.25,5.46c-.09.32.39.47.54.19.65-1.27,1.23-2.56,1.89-3.82s1.38-3.39,2.75-1.77c.85,1,1.19,2.83,1.47,4.08a2.6,2.6,0,0,0,.68,1.6c1.39,1.21,4.35.43,6,.46a4.73,4.73,0,0,1,2.35.37c.92.61.53.79,0,1.56A39.57,39.57,0,0,1,750.08,15a.58.58,0,0,0,.38,1,14.89,14.89,0,0,1,1.7,8.9,16.13,16.13,0,0,1-3.28-1.63c-1.22-.8-2.11-2.06-3.3-2.83s-2.43.06-3.56.88c-.9.65-1.74,1.38-2.64,2-.44.33-.88.65-1.35.93-.78.47-1.31,1.12-2,.26s0-2.75.34-3.86a24.58,24.58,0,0,1,1.82-4.4.63.63,0,0,0-.43-.89c-1.22-.33-2.43-.69-3.62-1.12q-.74-.27-1.48-.57c-.88-.35-1.57-.21-1.14-1.26.63-1.55,4.88-2.2,6.42-2.81.26-.11.22-.55-.1-.52a29.22,29.22,0,0,0-6,1.44c-1,.33-2.68.73-2.57,2.1.09,1.05,1.26,1.48,2.08,1.84a43.57,43.57,0,0,0,5.38,1.9c-1.45,3.08-4.92,12,.66,9.64a15,15,0,0,0,3.17-2c.87-.67,2.35-2.37,3.49-2.55s3.2,2.28,4.2,2.93a18.65,18.65,0,0,0,4.28,2,.65.65,0,0,0,.76-.5" transform="translate(0 -0.83)" style="fill:#00a6e2"/><path id="Fill-5-2" data-name="Fill-5" d="M757.2,55.47A11.5,11.5,0,0,0,755.94,48a13,13,0,0,0,2.57-2.85,1,1,0,0,0-.13-1.23c-1.67-1.73-5.8.65-6.69-1.6-.34-.87-1-4.71-2.62-4.37-.64.14-1,1.22-1.22,1.7a22,22,0,0,0-1.58,3.83c-.06.22.28.33.38.13.45-.89.86-1.8,1.32-2.68s1-2.38,1.93-1.24a7.21,7.21,0,0,1,1,2.86,1.82,1.82,0,0,0,.47,1.12c1,.85,3.05.31,4.2.32a3.31,3.31,0,0,1,1.65.26c.65.43.37.55,0,1.09a27.75,27.75,0,0,1-2.34,2.52.41.41,0,0,0,.27.67,10.45,10.45,0,0,1,1.19,6.25,11.4,11.4,0,0,1-2.3-1.14c-.85-.56-1.48-1.45-2.32-2s-1.71,0-2.49.62c-.63.46-1.22,1-1.85,1.43-.31.23-.62.46-.95.65-.55.33-.92.79-1.39.18s0-1.93.24-2.71a17.26,17.26,0,0,1,1.28-3.09.44.44,0,0,0-.3-.62c-.86-.23-1.71-.49-2.54-.79l-1-.4c-.62-.25-1.1-.15-.8-.88.44-1.09,3.43-1.54,4.5-2,.19-.07.15-.39-.07-.36a20.53,20.53,0,0,0-4.2,1c-.69.23-1.88.51-1.8,1.47.06.74.88,1,1.46,1.29a30.61,30.61,0,0,0,3.78,1.33c-1,2.16-3.45,8.44.46,6.76a10.49,10.49,0,0,0,2.23-1.41c.61-.47,1.65-1.66,2.45-1.79s2.24,1.6,2.95,2.06a13.1,13.1,0,0,0,3,1.4.46.46,0,0,0,.54-.35" transform="translate(0 -0.83)" style="fill:#00a6e2"/><path id="Fill-7-2" data-name="Fill-7" d="M702.54,30.53a13.88,13.88,0,0,1,8.21-4.1,15.77,15.77,0,0,1,1-4.54,1.17,1.17,0,0,1,1.29-.76c2.88.4,3.5,6.12,6.33,5.38,1.09-.28,5.34-2.34,6.12-.56.32.73-.5,1.82-.8,2.4A26.42,26.42,0,0,1,722,32.64c-.17.22-.52,0-.4-.27.54-1.07,1.14-2.12,1.67-3.2s1.63-2.64-.17-2.77a8.7,8.7,0,0,0-3.53,1,2.2,2.2,0,0,1-1.43.34c-1.52-.35-2.47-2.76-3.3-3.86-.36-.47-.85-1.21-1.43-1.42-.88-.32-.8,0-1.06.78a33.61,33.61,0,0,0-.79,4.07.49.49,0,0,1-.85.22,12.63,12.63,0,0,0-6.94,3.29,13.74,13.74,0,0,0,2.75,1.43c1.16.43,2.46.41,3.58.85s1.17,1.7,1.17,2.87c0,.94-.07,1.88-.08,2.82,0,.46,0,.93,0,1.39.07.77-.11,1.46.82,1.49s1.88-1.38,2.47-2.16a20.84,20.84,0,0,0,2.1-3.44.53.53,0,0,1,.82-.15c.84.67,1.69,1.32,2.58,1.92q.56.38,1.13.73c.68.42.93,1,1.43.15.74-1.21-.93-4.44-1.28-5.8-.06-.23.27-.42.4-.19a24.74,24.74,0,0,1,2,4.81c.27.84.84,2.2-.15,2.8-.76.46-1.64-.12-2.3-.51a36.85,36.85,0,0,1-4-2.73c-1.39,2.53-5.77,9.38-6.92,4.37a12.69,12.69,0,0,1-.21-3.17c0-.93.44-2.79,0-3.66s-3.16-1-4.1-1.41a15.79,15.79,0,0,1-3.5-1.93.55.55,0,0,1,0-.77" transform="translate(0 -0.83)" style="fill:#00a6e2"/><path id="Fill-9-2" data-name="Fill-9" d="M772.89,35.68a2.51,2.51,0,1,1-1.1-3.37,2.51,2.51,0,0,1,1.1,3.37" transform="translate(0 -0.83)" style="fill:#00a6e2"/><path id="Fill-11-2" data-name="Fill-11" d="M771.31,17.39a2.51,2.51,0,1,1-1.1-3.37,2.5,2.5,0,0,1,1.1,3.37" transform="translate(0 -0.83)" style="fill:#00a6e2"/><path id="Fill-13-2" data-name="Fill-13" d="M697.19,46.62a2.51,2.51,0,1,1-1.1-3.37,2.51,2.51,0,0,1,1.1,3.37" transform="translate(0 -0.83)" style="fill:#00a6e2"/><path id="Fill-15-2" data-name="Fill-15" d="M720.37,56.27a1.39,1.39,0,1,1-.61-1.87,1.39,1.39,0,0,1,.61,1.87" transform="translate(0 -0.83)" style="fill:#00a6e2"/><path id="Fill-17-2" data-name="Fill-17" d="M781.19,22.41a1.39,1.39,0,1,1-.61-1.87,1.39,1.39,0,0,1,.61,1.87" transform="translate(0 -0.83)" style="fill:#00a6e2"/><path id="Fill-19" d="M792.58,42.87A1.39,1.39,0,1,1,792,41a1.39,1.39,0,0,1,.61,1.87" transform="translate(0 -0.83)" style="fill:#00a6e2"/><path id="Fill-21" d="M694.72,32.16a1.39,1.39,0,1,1-.61-1.87,1.39,1.39,0,0,1,.61,1.87" transform="translate(0 -0.83)" style="fill:#00a6e2"/><path id="Fill-23" d="M704.15,16.71a1.39,1.39,0,1,1-.61-1.87,1.39,1.39,0,0,1,.61,1.87" transform="translate(0 -0.83)" style="fill:#00a6e2"/><path id="Fill-25" d="M679.32,39.33a1.39,1.39,0,1,1-.61-1.87,1.39,1.39,0,0,1,.61,1.87" transform="translate(0 -0.83)" style="fill:#00a6e2"/><g id="Group-31"><g style="mask:url(#mask-2-2)"><path id="Fill-29" d="M805.49,37c-8.59,8.93-8.26,22.33-.28,31.58,9.76,11.33,25.22,10.92,37.36,3.82A.78.78,0,0,0,842.3,71c-17.54-3.74-25.3-21.47-18.81-37.62a.78.78,0,0,0-.53-1.11c-6.43-1.52-12.13.88-17.31,4.61-.81.58,0,1.88.83,1.3,4.85-3.5,10.11-5.83,16.17-4.4l-.53-1.11c-6.87,17.09,1.3,35.87,19.88,39.84l-.26-1.41c-11.3,6.61-25.62,7.23-35-3.08-7.84-8.64-8.34-21.45-.13-30,.69-.72-.45-1.76-1.14-1" transform="translate(0 -0.83)" style="fill:#00a6e2"/></g></g><path id="Fill-32-2" data-name="Fill-32" d="M807,52.5c.19,1.8.74,4.47,2.81,5s3.5-1.47,4.32-3a.77.77,0,0,0-1.38-.7c-.43.8-1.42,2.62-2.62,2.2s-1.47-2.53-1.58-3.58-1.65-.9-1.54.09" transform="translate(0 -0.83)" style="fill:#00a6e2"/><path id="Fill-34-2" data-name="Fill-34" d="M817.46,63c1.33,1.3,2.92,2.54,4.85,2.63a7.56,7.56,0,0,0,4.8-2c.79-.6,0-1.91-.83-1.3a6.49,6.49,0,0,1-3.74,1.72c-1.62,0-2.94-1.17-4-2.23-.71-.7-1.75.45-1,1.14" transform="translate(0 -0.83)" style="fill:#00a6e2"/><path id="Fill-36-2" data-name="Fill-36" d="M847.21,53.51a1.41,1.41,0,0,0-.07-.54.78.78,0,0,0-1.49.08l-.06.22a.78.78,0,0,0,1,.89c1.67-.75,2.28-2.7,3.88-3.43l-1-.5c.28,1.24-1.38,1.75-2.28,1.75l.8.93a5.5,5.5,0,0,1,1.93-3l-1.07-.23c1.65,2.11-2.28,3.26-3.81,3.72l.66,1.38c1.41-.75,3-2.76,4.68-2.53l-.53-1.11c-.9,1.86-3.29,2.48-5.17,2.82l.61,1.29c.36-.31.69-.65,1.05-1a.79.79,0,0,0-.26-1.41h0a.78.78,0,0,0-.46-1.42,1.19,1.19,0,0,1,.34-.78.78.78,0,0,0-.53-1.11,1.21,1.21,0,0,1-.85-1.62l-1.28.42c.24.17.5.3.73.46l.87-1.26a.63.63,0,0,1-.25-.87l-.91.6a1.32,1.32,0,0,1,.81,2.1l1.44.51a4.84,4.84,0,0,1,.24-1l-.84.41c.91.31-.23-.44,0,0-.08-.17-.33.67.06-.42l-1,.34c.79.39.77,1,.69,1.75a.78.78,0,0,0,1.44.51,4.46,4.46,0,0,0,.44-1.06l-1.53-.11a9.07,9.07,0,0,1,.09,1.54.78.78,0,0,0,1,.89,1.93,1.93,0,0,0,.79-.33l-1.19-.61.19-.3c-.06-.7-1.16-1.06-1.46-.31-.23.59.52.49.6.22,0-.08-.14-.29-.14-.38,0-.42-.2-.88-.24-1.3a11,11,0,0,0,0-1.31c0-.12.11-.27.1-.38-.44,0-.55.05-.33.15a2.58,2.58,0,0,1,.35.35l.81-1.17a9,9,0,0,0-1.68-.13c-.45,0-.71.44-.73.82-.09,1.73.61,3.44.33,5.15l1.49-.08a4.57,4.57,0,0,1-.32-1.94c.06-.91-1.32-.91-1.53-.11-.68,2.58,2.27,3,3.44,1l-1.45-.51c-.24,1.09-.71,2.1-.85,3.21-.09.7.81,1.32,1.33.68a3.44,3.44,0,0,0,.74-2.56.78.78,0,0,0-1-.69c-.89.22-2,.74-2,1.83a1.89,1.89,0,0,0,1.81,1.65c2,.28,4.33-1.42,5.14-3.15.42-.9-1-1.6-1.38-.7a4.58,4.58,0,0,1-1.71,1.73,2.7,2.7,0,0,1-1.1.55c-.46,0-1.34-.19-.3-.45l-1-.69a2.12,2.12,0,0,1-.34,1.42l1.33.68c.14-1.11.61-2.12.85-3.21a.78.78,0,0,0-1.45-.51l-.54,0-1.53-.11a5.59,5.59,0,0,0,.39,2.33.78.78,0,0,0,1.49-.08c.31-1.87-.4-3.68-.3-5.55l-.73.82a7,7,0,0,1,1.28.1c.6.16,1.23-.66.81-1.17-.57-.69-1.48-1.54-2.37-.79-.73.62-.67,1.93-.6,2.78a5,5,0,0,0,.75,2.72c.71.82,1.61.35,2-.53l-1.46-.31c.08.93.55,2,1.65,2.07s1.38-1.05,1.24-1.94a.78.78,0,0,0-1.19-.61l-.44.16,1,.89a11,11,0,0,0-.06-1.94c0-.94-1.28-.9-1.53-.11a2.76,2.76,0,0,1-.3.67l1.45.51c.17-1.47-.09-2.74-1.5-3.44a.78.78,0,0,0-1,.34c-.54,1.49,0,3.35,2,2.52,1.74-.75,1.24-2.39-.31-2.92a.77.77,0,0,0-.84.41,7,7,0,0,0-.38,1.42.78.78,0,0,0,1.45.51,2.84,2.84,0,0,0-1.87-4.32.79.79,0,0,0-.91.6A2,2,0,0,0,844.26,49c.74.44,1.59-.76.87-1.26-.24-.17-.5-.3-.73-.46a.78.78,0,0,0-1.28.41,2.8,2.8,0,0,0,2,3.44L844.63,50c-.85,1.32-.74,3,1.13,3l-.46-1.42c-1.6,1-1.13,2.31.5,2.83l-.26-1.41c-.47.39-.9.81-1.36,1.21a.78.78,0,0,0,.62,1.29c2.44-.44,5.29-1.24,6.45-3.66a.78.78,0,0,0-.53-1.11c-2.41-.32-3.89,1.71-5.83,2.74-.8.42-.16,1.63.66,1.39,2.51-.74,7.18-2.77,4.63-6a.79.79,0,0,0-1.07-.23,7.22,7.22,0,0,0-2.61,3.94c-.18.5.37.93.8.93,2.1,0,4.16-1.53,3.66-3.77a.77.77,0,0,0-1-.5c-1.67.75-2.28,2.7-3.88,3.43l1,.89.06-.22-1.49.08c0,.05,0,.1,0,.15,0,1,1.51.9,1.54-.09" transform="translate(0 -0.83)" style="fill:#00a6e2"/><path id="Fill-38-2" data-name="Fill-38" d="M841.69,38.09c-.11-2.15-1.74-2.5-3.1-1-1.51,1.71-1.65,4-1.79,6.21a.78.78,0,0,0,.82.73c2.93-.14,7.74,1,8.71-2.93.83-3.38-3.93-3.34-5.83-2.22l1.17.81a3,3,0,0,0-.65-3.11.79.79,0,0,0-1.09,0c-1.47,1.28-1.9,3.59-2,5.45,0,.45.43.7.82.73,1.5.1,3.33.28,4.7-.48.82-.45,2-1.8,1.63-2.82-.62-1.94-4.17-.1-5.31.29l1,.69a7.68,7.68,0,0,1-.14-2c.11-.82-1.06-1.34-1.44-.51a13.49,13.49,0,0,0-1,3.5.78.78,0,0,0,.8.93c1.69-.11,4.72-.46,5.41-2.34a.78.78,0,0,0-.73-1.12A7.49,7.49,0,0,0,840,40.29c-.77.44-.17,1.65.66,1.39l1.95-.64c1-.32.47-1.66-.48-1.47-.56.11-1.1.31-1.66.42l.66,1.38a4.26,4.26,0,0,1,1.76-.85c1-.2,1.07-.07.34.71-1.29,1.38-3.9,1.18-5.55.73l.08,1.49c.72-.31,1.3-.84,2-1.14a.78.78,0,0,0,.11-1.42l-.2-.16,0,.77a9.85,9.85,0,0,0,.88-2.86l-1.53-.11-.06.66c-.13,1,1.38,1.3,1.51.31a9.39,9.39,0,0,0,.09-1.06.78.78,0,0,0-1.53-.11,8.36,8.36,0,0,1-.74,2.46.77.77,0,0,0,0,.77,2.65,2.65,0,0,0,.8.71q.05-.71.11-1.42c-.73.3-1.31.83-2,1.14a.78.78,0,0,0,.08,1.49c2.44.66,7.47.54,7.91-2.88.36-2.81-3.89-1.39-5-.52a.78.78,0,0,0,.66,1.38c.56-.11,1.1-.31,1.66-.42l-.48-1.47-1.95.63.66,1.39a5.92,5.92,0,0,1,2.95-1.08L843,39.39c-.46,1.25-3,1.42-4.12,1.49l.8.93a11.88,11.88,0,0,1,.89-3.11l-1.45-.51a8.9,8.9,0,0,0,.12,2.43.78.78,0,0,0,1,.69c1.14-.39,2.3-.69,3.44-1,.13,0-.07-.26-.22-.13s-.28.47-.48.65a2.57,2.57,0,0,1-1.5.54,15.4,15.4,0,0,1-2.83,0l.82.73c0-1.47.4-3.31,1.56-4.32l-1.09,0a1.58,1.58,0,0,1,.18,1.65.78.78,0,0,0,1.17.81,3.76,3.76,0,0,1,2.75-.43c1.27.36.71,1.7-.15,2.28-1.73,1.16-4.45.36-6.4.45l.82.73a15.35,15.35,0,0,1,.48-3.43,4.56,4.56,0,0,1,.67-1.35,3.12,3.12,0,0,1,.49-.57c.23-.19.09-1,.16.27a.77.77,0,0,0,1.54-.09" transform="translate(0 -0.83)" style="fill:#00a6e2"/><path id="Fill-40-2" data-name="Fill-40" d="M829.46,43.25a1,1,0,0,0,.34,1.48.83.83,0,0,0,.85,0,.82.82,0,0,0,.28-.31s.15-.43,0-.14l-.27.3,0,0c.8-.59,0-1.89-.83-1.3a.91.91,0,0,0-.31.34c0,.06-.18.43,0,.13l.64-.42h0l.4.08.11.09.12.37s0,0,0-.07l-.08.39c-.06.13.11-.18.13-.22a.78.78,0,0,0-.34-1,.79.79,0,0,0-1,.34" transform="translate(0 -0.83)" style="fill:#00a6e2"/><path id="Fill-42-2" data-name="Fill-42" d="M832.24,35.25v0a.81.81,0,0,0-.62-.71.94.94,0,0,0-1.06.54,1,1,0,0,0,.78,1.35,1,1,0,0,0,1-1,.84.84,0,0,0-.36-.64l-.19-.11-.2-.07a.23.23,0,0,1,.17.13.79.79,0,0,0-1.07-.23.78.78,0,0,0-.23,1.07,1.29,1.29,0,0,0,.45.41l.2.08c.3.11-.08-.05.07,0l-.3-.27,0,0-.12-.37v0l.08-.4a.41.41,0,0,1-.09.15l.64-.42h-.11l.4.08-.08,0,.3.27-.05-.1.12.37v-.09l-.08.4,0,.05-.33.21h-.25l-.62-.71v0c.09,1,1.64.9,1.54-.09" transform="translate(0 -0.83)" style="fill:#00a6e2"/><path id="Fill-44-2" data-name="Fill-44" d="M847.78,51.4a5.32,5.32,0,0,0-1.32-4.1c-.69-.77-1.68-1.69-2.77-1.08-2.85,1.61.21,6.82,0,9a.78.78,0,0,0,1,.89c1.59-.52,3.31,0,4.9-.49a4.15,4.15,0,0,0,2.75-3.49c.35-3.4-3.55-3.89-5.72-2.29-.8.59,0,1.89.83,1.3s2.19-1.23,3-.32-.08,2.73-1.11,3.21c-1.55.73-3.5.06-5.15.6l1,.89a15.17,15.17,0,0,0-.87-5c-.19-.77-.42-4,1.11-2.1a4.09,4.09,0,0,1,.76,3c0,1,1.55.9,1.54-.09" transform="translate(0 -0.83)" style="fill:#00a6e2"/><path id="Fill-46-2" data-name="Fill-46" d="M850.39,44.37l0,.05.33-.21,0,0,.76.16,0,0,.24.73,0-.09a.78.78,0,0,0-.6-.91.79.79,0,0,0-.91.6.83.83,0,0,0,.23.84.74.74,0,0,0,.76.16,1,1,0,0,0,.42-.28c.63-.77-.51-1.81-1.14-1" transform="translate(0 -0.83)" style="fill:#00a6e2"/><path id="Fill-48-2" data-name="Fill-48" d="M836.67,48.15h0l.92-.17,0,0,.42.64v-.1a.77.77,0,0,0-1.54.09.89.89,0,0,0,.45.76.77.77,0,0,0,.92-.17,2.85,2.85,0,0,0,.21-.33.77.77,0,0,0-1.38-.7" transform="translate(0 -0.83)" style="fill:#00a6e2"/><path id="Fill-50-2" data-name="Fill-50" d="M838.47,55.65l.11-.06.39,0h-.05l.37.19,0,0,.21.33h0a.8.8,0,0,0-.82-.73.78.78,0,0,0-.73.82c.08.43.24.84.71.95a1.1,1.1,0,0,0,1-.39.78.78,0,0,0,0-1.09.79.79,0,0,0-1.09,0" transform="translate(0 -0.83)" style="fill:#00a6e2"/><path id="Fill-52-2" data-name="Fill-52" d="M847.23,60.17l.08,0a.77.77,0,0,0,.7-1.38l-.08,0a.77.77,0,0,0-.7,1.38" transform="translate(0 -0.83)" style="fill:#00a6e2"/><path id="Fill-54-2" data-name="Fill-54" d="M836.37,31.93c-.11.57-.12,1.08.48,1.39a.89.89,0,0,0,1.27-.58c0-.09.07-.42,0-.2l-.19.37,0-.05a.77.77,0,0,0-1.14-1,.91.91,0,0,0-.24.44c0,.07,0,.43,0,.17l.19-.37,0-.05.77,0q.16.81.25.44a1.11,1.11,0,0,0,0-.17.77.77,0,0,0-1.51-.31" transform="translate(0 -0.83)" style="fill:#00a6e2"/><g id="Group-58"><g style="mask:url(#mask-3)"><path id="Fill-56-2" data-name="Fill-56" d="M844.85,33.81a2.11,2.11,0,0,0-.67-.56.77.77,0,0,0-.7,1.38c.12.07.14.08.07,0a.8.8,0,0,0,1.07.23.78.78,0,0,0,.23-1.07" transform="translate(0 -0.83)" style="fill:#00a6e2"/></g></g></g></g></g></svg>