<svg xmlns="http://www.w3.org/2000/svg" width="21" height="21" viewBox="0 0 21 21"><path fill="#004395" d="M19.56 20.78H1.44a1.3 1.3 0 0 1-1.29-1.29V3.31c0-.71.58-1.29 1.29-1.29h5.17V.73a.65.65 0 1 1 1.3 0v1.29h5.17V.73a.65.65 0 1 1 1.3 0v1.29h5.18c.71 0 1.29.58 1.29 1.29v16.18a1.3 1.3 0 0 1-1.29 1.29zm0-17.47h-5.18v.65a.65.65 0 1 1-1.3 0v-.65H7.91v.65a.65.65 0 1 1-1.3 0v-.65H1.44v16.18h18.12zm-4.53 4.53h1.29c.36 0 .65.29.65.65v1.29c0 .36-.29.65-.65.65h-1.29a.65.65 0 0 1-.65-.65V8.49c0-.36.29-.65.65-.65zm0 5.18h1.29c.36 0 .65.29.65.64v1.3c0 .36-.29.65-.65.65h-1.29a.65.65 0 0 1-.65-.65v-1.3c0-.35.29-.64.65-.64zm-5.18 0h1.3c.35 0 .64.29.64.64v1.3c0 .36-.29.65-.64.65h-1.3a.65.65 0 0 1-.64-.65v-1.3c0-.35.29-.64.64-.64zm0-5.18h1.3c.35 0 .64.29.64.65v1.29c0 .36-.29.65-.64.65h-1.3a.65.65 0 0 1-.64-.65V8.49c0-.36.29-.65.64-.65zm-5.17 0h1.29c.36 0 .65.29.65.65v1.29c0 .36-.29.65-.65.65H4.68a.65.65 0 0 1-.65-.65V8.49c0-.36.29-.65.65-.65zm0 5.18h1.29c.36 0 .65.29.65.64v1.3c0 .36-.29.65-.65.65H4.68a.65.65 0 0 1-.65-.65v-1.3c0-.35.29-.64.65-.64z"/></svg>