<svg xmlns="http://www.w3.org/2000/svg" xmlns:xlink="http://www.w3.org/1999/xlink" width="19" height="19" viewBox="0 0 19 19"><defs><path id="a" d="M645.46 887.2a8.32 8.32 0 0 0 0 16.64 8.33 8.33 0 0 0 0-16.64s4.58 0 0 0zm0-1.2a9.5 9.5 0 1 1-.01 19 9.5 9.5 0 0 1 .01-19zm-4.15 8.91h3.56v-3.56a.6.6 0 1 1 1.18 0v3.56h3.56a.6.6 0 0 1 0 1.2h-3.56v3.56a.6.6 0 0 1-1.18 0v-3.57h-3.56a.6.6 0 0 1 0-1.19z"/></defs><desc>Generated with Avocode.</desc><g transform="translate(-636 -886)"><use fill="#004395" xlink:href="#a"/></g></svg>